<?xml version="1.0" encoding="utf-8"?>
<!-- Generator: Adobe Illustrator 25.0.0, SVG Export Plug-In . SVG Version: 6.00 Build 0)  -->
<svg version="1.1" id="Слой_2" xmlns="http://www.w3.org/2000/svg" xmlns:xlink="http://www.w3.org/1999/xlink" x="0px" y="0px"
	 viewBox="0 0 3200 2000" style="enable-background:new 0 0 3200 2000;" xml:space="preserve">
<style type="text/css">
	.st0{fill:#EDF4FF;}
	.st1{fill:#B8E0AF;}
	.st2{opacity:0.4;fill:#CBD9EF;}
	.st3{fill:#E58638;}
	.st4{fill:#CC621B;}
	.st5{opacity:0.4;fill:#C4D2E8;}
	.st6{fill:#B25414;}
	.st7{fill:#8E3900;}
	.st8{fill:#233862;}
	.st9{fill:#466AA5;}
	.st10{fill:#ED7D2B;}
	.st11{fill:#FFB93E;}
	.st12{fill:#F99746;}
	.st13{fill:#38568A;}
	.st14{fill:#5F87C1;}
	.st15{fill:#3F6098;}
	.st16{fill:#A53D38;}
	.st17{fill:#FFB27D;}
	.st18{fill:#EF9E67;}
	.st19{fill:#FFA412;}
	.st20{fill:#BC3F3F;}
	.st21{fill:#A53232;}
	.st22{fill:#D2E4FF;}
	.st23{fill:#EE9849;}
	.st24{fill:#578E9B;}
	.st25{fill:#74ACBE;}
	.st26{fill:#2B478B;}
	.st27{fill:#F1A34F;}
	.st28{fill:#D86713;}
	.st29{fill:#CB7D45;}
	.st30{fill:#D9935C;}
	.st31{fill:#B64C41;}
	.st32{fill:#0F2949;}
	.st33{fill:#163560;}
	.st34{fill:#ED985F;}
	.st35{fill:#2C3A64;}
	.st36{fill:#BBD4FF;}
	.st37{fill:#CC6E2E;}
	.st38{fill:#2E3552;}
	.st39{display:none;fill:#FFFFFF;}
</style>
<g>
	<path class="st0" d="M3019.88,1278.75c-0.11,5.64-0.33,11.18-0.55,16.71c-0.33,5.53-0.66,10.95-0.99,16.37
		c-0.89,11.61-2.1,23.12-3.65,34.29c-1.88,14.38-4.2,28.54-6.86,42.15c-0.78,3.87-1.55,7.63-2.32,11.4c-0.33,1.55-0.66,2.99-1,4.42
		l-0.22,0.78c-0.44,1.99-0.88,3.98-1.33,5.97c-0.33,1.88-0.77,3.76-1.22,5.53c-1.66,6.86-3.43,13.61-5.2,20.13
		c-0.11,0.55-0.33,1.1-0.44,1.66c-0.22,0.67-0.33,1.33-0.55,1.99c-1.99,7.41-4.09,14.49-6.2,21.46c-2.88,9.4-5.86,18.37-8.85,27.1
		c-0.89,2.54-1.77,5.09-2.66,7.52c-1.33,3.65-2.66,7.3-3.87,10.84c0,0,0,0,0,0.11c-1.22,2.88-2.21,5.53-3.32,8.3
		c-1.66,4.42-3.43,8.63-5.09,12.83c-2.54,6.2-5.09,12.17-7.52,17.7c-0.55,1.33-1.11,2.54-1.66,3.76c-1.11,2.54-2.21,4.98-3.21,7.3
		c-2.21,4.87-4.42,9.51-6.53,13.83c-2.1,4.31-4.09,8.41-5.97,12.17c-7.08,13.94-13.05,25.44-15.71,30.42
		c-0.89,1.77-1.44,2.77-1.44,2.77s-2725.67,0.33-2725.78,0.22c-72.02-160.96,9.62-283.98,180.44-423.04
		c127.89-104.32,365.41-140.39,303.45-360.65C608.51,573.16,954,488.2,1298.83,569.29c269.71,63.39,517.96,288.41,704.93,212.96
		c362.31-146.25,536-81.09,636.34-38.94c3.21,1.33,6.42,2.66,9.51,4.09c14.71,6.41,29.54,13.71,44.47,21.79
		c3.1,1.66,6.2,3.43,9.4,5.2c10.4,5.86,20.91,12.17,31.42,18.92c4.87,3.21,9.74,6.42,14.71,9.73c0.33,0.22,0.77,0.44,1.11,0.78
		c6.75,4.53,13.5,9.18,20.25,14.16c7.85,5.75,15.71,11.73,23.67,18.03c14.05,11.06,28.1,23.01,42.26,35.73
		c5.42,4.87,10.73,9.85,16.15,14.94c6.31,5.86,12.39,11.84,18.25,17.92c5.42,5.64,10.73,11.28,15.82,16.92
		c1.77,1.88,3.54,3.87,5.31,5.87c4.32,4.87,8.41,9.84,12.5,14.71c3.76,4.53,7.3,9.18,10.84,13.72c1.33,1.77,2.66,3.54,3.98,5.2
		c2.1,2.88,4.2,5.64,6.19,8.52c4.31,6.08,8.52,12.06,12.39,18.14c5.31,8.08,10.29,16.15,14.94,24.23c0.66,1.11,1.33,2.21,1.99,3.43
		c0.55,0.99,1.11,1.99,1.66,2.98c1.55,2.77,3.1,5.65,4.65,8.41c10.4,19.58,19.25,39.27,26.66,58.96c0.44,1.22,0.88,2.43,1.33,3.65
		c0.77,1.99,1.44,3.98,2.1,5.97c1.33,3.65,2.54,7.3,3.76,10.95c1.11,3.54,2.21,7.19,3.32,10.73c0.11,0.44,0.33,1,0.44,1.44
		c0.89,2.98,1.66,5.86,2.54,8.85c1.44,5.31,2.88,10.62,4.09,15.93c1.99,8.41,3.76,16.71,5.31,25.11c0.11,0.77,0.33,1.66,0.44,2.44
		c1.44,8.08,2.66,16.04,3.76,24.01C3019.11,1223.33,3020.43,1251.43,3019.88,1278.75z"/>
	<path class="st1" d="M446.45,1615.23c0,0,23.04-65.95,98.36-70.31c75.33-4.35,117.18-62.87,195.02-49.18
		c77.84,13.69,83.68,71.15,116.45,87c32.77,15.85,197.72-20.57,260.28-3.3c62.57,17.27,91.88-25.72,150.08-44.32
		c58.2-18.59,96.37,6.9,138.24,35.91s100.47-3.26,97.91,42.83L446.45,1615.23z"/>
	<rect x="728.62" y="1010.7" class="st2" width="720.62" height="544.46"/>
	<g>
		<path class="st3" d="M866.88,963.58l-0.13,18.32l-3.8,550.84c-0.01,1.33-0.48,2.39-1.06,2.39h-0.28c-1.14,0-2.07-2.09-2.1-4.71
			l-5.27-531.71l-0.35-35.13H866.88z"/>
		<path class="st4" d="M866.88,963.58l-0.13,18.32c-3.48,2.5-8.45,7.43-12.52,16.81l-0.35-35.13H866.88z"/>
	</g>
	<path class="st5" d="M1449.24,1282.74v272.41H728.62V1010.7h211.76C1005.33,1073.07,1233.2,1276.47,1449.24,1282.74z"/>
	<path class="st1" d="M1642.62,1611.89h-71.06c-3.81-3.23,2.63-10.57,9.37-11.06c2.92-0.22,6.62,0.39,10.85,1.28
		c0.98-12.99,6.56-71.37,27.61-69.03c23.66,2.63,0,25.71-6.69,39.38c-4.96,10.12-10.18,24.64-12.57,31.49
		c1.92,0.42,3.91,0.83,5.94,1.2c3.14-9.63,14.81-42.02,29.65-40.14c17.42,2.21,10.42,15.2-1.93,22.91
		c-9.06,5.67-20.19,13.73-25.47,17.62c4.48,0.73,9.15,1.22,13.9,1.11C1634.38,1606.38,1640.32,1609.96,1642.62,1611.89z"/>
	<path class="st1" d="M248.07,1607.76c-3.86-6.06-15.47-21.79-30.93-19.71c-16.85,2.27,18.61,13.38,29.46,19.75
		c-2.41,0.03-4.48-0.16-6.01-0.7c-7.26-2.59-19.68,2.37-23.66,4.11h69.09c-0.48-1.65-1.72-4.35-4.94-6.32
		c-1.13-0.69-3.41-0.79-6.36-0.57c4.11-4.84,6.96-20.31-4.48-16.33c-8.35,2.91-8.33,12.36-7.51,17.95
		c-1.78,0.28-3.58,0.56-5.36,0.82c-3.44-17.53-15.61-68.91-40.26-70.28c-25-1.39,21.2,53.28,36.58,70.77
		C251.73,1607.5,249.83,1607.68,248.07,1607.76z"/>
	<g>
		<g>
			<g>
				<path class="st4" d="M1384.34,1467.83l-0.41,18.16l-2.87,126.56c-0.02,0.79-0.66,1.42-1.45,1.42l0,0
					c-1.36,0-2.47-1.07-2.52-2.43l-4.65-119.83l-0.92-23.88H1384.34z"/>
				<path class="st6" d="M1384.34,1467.83l-0.41,18.16c-3.62,1.21-7.9,3.04-11.5,5.72l-0.92-23.88H1384.34z"/>
			</g>
			<g>
				<path class="st4" d="M807.36,1467.83l-0.41,18.16l-2.87,126.56c-0.02,0.79-0.66,1.42-1.45,1.42l0,0c-1.36,0-2.47-1.07-2.52-2.43
					l-4.65-119.83l-0.92-23.88H807.36z"/>
				<path class="st6" d="M807.36,1467.83l-0.41,18.16c-3.62,1.21-7.89,3.04-11.5,5.72l-0.92-23.88H807.36z"/>
			</g>
		</g>
		<path class="st3" d="M1414.82,1473.92H764.05c-4.11,0-7.47-3.36-7.47-7.47v-37.55c0-4.11,3.36-7.47,7.47-7.47h650.76
			c4.11,0,7.47,3.36,7.47,7.47v37.55C1422.29,1470.56,1418.92,1473.92,1414.82,1473.92z"/>
	</g>
	<g>
		<path class="st7" d="M3002.95,1410.84c-0.33,1.88-0.77,3.76-1.22,5.53c-1.66,6.86-3.43,13.61-5.2,20.13
			c-0.11,0.55-0.33,1.1-0.44,1.66c-0.22,0.67-0.33,1.33-0.55,1.99c-1.99,7.41-4.09,14.49-6.2,21.46c-2.88,9.4-5.86,18.37-8.85,27.1
			c-0.89,2.54-1.77,5.09-2.66,7.52c-1.33,3.65-2.66,7.3-3.87,10.84c0,0,0,0,0,0.11c-1.22,2.88-2.21,5.53-3.32,8.3
			c-1.66,4.42-3.43,8.63-5.09,12.83c-2.54,6.2-5.09,12.17-7.52,17.7c-0.55,1.33-1.11,2.54-1.66,3.76c-1.11,2.54-2.21,4.98-3.21,7.3
			h-157.09v-146.25H3002.95z"/>
		<rect x="1978.84" y="1410.82" class="st7" width="291.25" height="146.22"/>
		<circle class="st8" cx="2116.48" cy="1527.65" r="86.32"/>
		<path class="st9" d="M2161.76,1527.65c0,10.08-3.3,19.4-8.88,26.92c-8.24,11.15-21.48,18.36-36.4,18.36
			c-25.01,0-45.29-20.27-45.29-45.28c0-19.42,12.21-35.98,29.37-42.42c4.95-1.86,10.32-2.87,15.92-2.87
			C2141.49,1482.36,2161.76,1502.63,2161.76,1527.65z"/>
		<path class="st10" d="M3015.34,1194.79c-1.11-7.96-2.32-15.93-3.76-24.01c-0.11-0.77-0.33-1.66-0.44-2.44
			c-1.55-8.4-3.32-16.7-5.31-25.11l-1195.34-221.7c-1.77,0-3.65,0-5.42,0.11c-0.33,0-0.77,0.11-1.11,0.11
			c-0.77,0-1.44,0.11-2.1,0.11h-0.11c-0.33,0.11-0.66,0.11-1,0.11c-0.44,0.11-0.88,0.11-1.22,0.22c-3.32,0.33-6.64,1-9.96,1.77
			c-0.44,0.11-0.88,0.22-1.33,0.33c-0.11,0.11-0.22,0.11-0.33,0.11c-0.66,0.22-1.33,0.33-1.88,0.55c-0.44,0.11-0.88,0.22-1.33,0.33
			c-0.66,0.22-1.33,0.44-1.99,0.66c-0.66,0.22-1.33,0.44-1.99,0.66c-0.33,0.11-0.66,0.33-1.11,0.44c-0.66,0.22-1.44,0.56-2.21,0.89
			c-0.55,0.22-1.22,0.44-1.77,0.78c-1,0.33-1.88,0.77-2.88,1.22c-0.55,0.33-1.11,0.55-1.77,0.88c-0.33,0.22-0.77,0.33-1.11,0.55
			c-0.77,0.44-1.44,0.77-2.1,1.11c-0.66,0.44-1.33,0.77-1.99,1.22c-0.66,0.33-1.22,0.66-1.88,1.11c-0.11,0.11-0.22,0.11-0.33,0.22
			c-0.67,0.33-1.22,0.77-1.77,1.1c-0.55,0.44-1.11,0.77-1.66,1.22c-0.55,0.33-1.11,0.66-1.66,1.11c-0.33,0.22-0.66,0.55-1.11,0.77
			c-1.44,1.11-2.88,2.32-4.2,3.54c-0.33,0.22-0.66,0.44-0.88,0.66c-0.44,0.44-0.89,0.77-1.22,1.1c-0.44,0.44-0.89,0.78-1.33,1.22
			l-2.43,2.43c-0.44,0.44-0.88,0.89-1.22,1.33c-0.55,0.44-1,0.99-1.44,1.44c-0.22,0.33-0.55,0.66-0.88,0.99
			c-0.55,0.77-1.11,1.44-1.66,2.1c-0.33,0.33-0.55,0.66-0.89,1c-0.22,0.44-0.55,0.77-0.77,1.1c-0.55,0.78-1.11,1.44-1.66,2.21
			c-0.22,0.33-0.44,0.66-0.66,1.11c-0.33,0.33-0.55,0.66-0.77,1.11c-0.44,0.55-0.88,1.22-1.33,1.88c0,0.11,0,0.11-0.11,0.11
			c-0.11,0.33-0.33,0.55-0.44,0.88c-0.33,0.44-0.55,0.89-0.88,1.33c-0.22,0.44-0.44,0.66-0.55,1.11c-0.11,0-0.11,0.11-0.11,0.11
			c-0.11,0.34-0.33,0.66-0.55,1c-0.33,0.55-0.66,1.22-1,1.77c-0.33,0.78-0.77,1.55-1.11,2.33c-0.33,0.66-0.66,1.33-0.88,1.99
			c-0.22,0.33-0.33,0.66-0.55,0.99c-0.11,0.44-0.22,0.78-0.44,1.11c-0.33,0.77-0.55,1.44-0.89,2.21c-0.22,0.66-0.55,1.33-0.77,2.1
			c-0.11,0.33-0.33,0.77-0.44,1.22c-0.11,0.33-0.22,0.66-0.33,1c-0.11,0.22-0.11,0.44-0.22,0.66c-0.11,0.33-0.22,0.77-0.33,1.11
			c-0.22,0.55-0.33,1.11-0.55,1.66c-0.11,0.44-0.22,0.89-0.33,1.33c-0.11,0.44-0.22,0.78-0.33,1.22c-1.22,4.31-2.32,8.74-3.54,13.39
			c-0.22,0.78-0.44,1.55-0.66,2.32c-1.33,4.87-2.65,9.84-3.98,14.93c-0.33,1-0.55,2.1-0.88,3.21c-0.11,0.55-0.22,1-0.33,1.44
			c-0.44,1.55-0.88,3.1-1.22,4.65c-0.44,1.55-0.88,3.21-1.33,4.76c0,0.22-0.11,0.44-0.22,0.78c-0.11,0.78-0.33,1.55-0.55,2.33
			c-0.22,0.66-0.33,1.22-0.44,1.77c-0.44,1.44-0.77,2.77-1.11,4.2c-0.55,1.88-1,3.76-1.55,5.64c-0.33,1.44-0.78,2.99-1.11,4.54
			c-1.22,4.54-2.43,9.18-3.65,13.83c-0.55,2.32-1.11,4.53-1.77,6.86c-0.55,2.32-1.22,4.65-1.77,6.97c-0.55,2.32-1.22,4.65-1.77,6.97
			c-0.55,2.1-1,4.2-1.55,6.31c-1.55,6.08-3.1,12.17-4.54,18.14c-0.55,2.32-1.11,4.54-1.66,6.75c-0.22,0.78-0.33,1.55-0.55,2.21
			c-0.55,2.32-1.11,4.53-1.66,6.75c-0.11,0.44-0.11,0.77-0.22,1.22c-0.44,1.77-0.88,3.54-1.33,5.31c-0.22,0.78-0.33,1.55-0.55,2.21
			c-0.44,1.99-0.89,3.87-1.33,5.75c-0.22,1.22-0.55,2.32-0.77,3.43c-0.55,1.99-1,3.87-1.44,5.86c0,0.11,0,0.33-0.11,0.44
			c-0.22,1.1-0.44,2.21-0.66,3.21c-0.11,0.22-0.11,0.33-0.11,0.56c-0.22,0.88-0.44,1.77-0.66,2.65c-0.22,1-0.44,2.1-0.66,3.1
			c-0.55,2.1-1,4.09-1.44,6.2c-0.11,0.44-0.22,1-0.33,1.55c-0.55,2.44-1.11,4.98-1.66,7.41c-0.11,0.88-0.33,1.77-0.55,2.66
			c0,0.22-0.11,0.44-0.11,0.66c-0.22,0.77-0.33,1.66-0.55,2.43c-0.11,0.33-0.11,0.66-0.22,1c-0.22,1.22-0.44,2.43-0.77,3.65v0.11
			c-0.11,0.78-0.33,1.44-0.44,2.21c-0.44,2.33-0.88,4.53-1.33,6.75c-2.32,11.51-4.09,21.57-5.09,29.65
			c-5.42,40.71-7.52,85.96-8.08,129.77c-0.11,18.81,0,37.28,0.33,54.87c0.11,7.96,0.33,15.71,0.55,23.23
			c0.66,21.46,1.55,41.26,2.43,58.52c0.55,10.07,1.22,19.14,1.66,27.21c1.55,22.01,19.69,39.05,41.71,39.05h305.33
			c-0.11-0.33-0.11-0.67-0.22-1c-2.54-9.07-3.76-18.58-3.76-28.43c0-41.37,23.34-77.33,57.64-95.36
			c14.49-7.63,30.87-11.95,48.23-12.28c18.47-0.22,35.95,4.21,51.22,12.28c33.96,17.81,57.42,53.1,57.97,93.81
			c0.11,10.4-1.22,20.46-3.76,29.98c-0.11,0.33-0.22,0.66-0.22,1h167.49h419.06h22.24c-2.65-9.41-4.2-19.25-4.2-29.43
			c0-60.29,48.9-109.08,109.08-109.08c23.23,0,44.8,7.19,62.4,19.58c0.11-0.55,0.33-1.11,0.44-1.66c1.77-6.53,3.54-13.28,5.2-20.13
			c0.44-1.77,0.89-3.65,1.22-5.53c0.44-1.99,0.89-3.98,1.33-5.97l0.22-0.78c0.33-1.44,0.66-2.88,1-4.42
			c0.77-3.76,1.55-7.52,2.32-11.4c2.65-13.61,4.98-27.77,6.86-42.15c1.55-11.17,2.77-22.68,3.65-34.29
			c0.33-5.42,0.66-10.84,0.99-16.37c0.22-5.53,0.44-11.06,0.55-16.71C3020.43,1251.43,3019.11,1223.33,3015.34,1194.79z"/>
		<path class="st11" d="M1857.47,1451.78h-53.34c-5.35,0-9.73-4.38-9.73-9.73l0,0c0-5.35,4.38-9.73,9.73-9.73h53.34
			c5.35,0,9.73,4.38,9.73,9.73l0,0C1867.2,1447.4,1862.82,1451.78,1857.47,1451.78z"/>
		<path class="st12" d="M3015.34,1194.79c0,0-1340.73-4.02-1341.3-1.66c-2.29,9.49-4.05,17.77-5.11,24.41
			c-6.82,42.82-8.51,91.99-7.97,136.7c0.14,11.7,0.44,23.09,0.84,33.98h875.07v0.05h470.95c2.65-13.61,4.98-27.77,6.86-42.15
			c1.55-11.17,2.77-22.68,3.65-34.29c0.33-5.42,0.66-10.84,0.99-16.37c0.22-5.53,0.44-11.06,0.55-16.71
			C3020.43,1251.43,3019.11,1223.33,3015.34,1194.79z"/>
		<path class="st11" d="M1683.04,1490.86h-22.86c-4.95,0-8.99-4.05-8.99-8.99v-63.76c0-4.95,4.05-8.99,8.99-8.99h22.86
			c4.95,0,8.99,4.05,8.99,8.99v63.76C1692.03,1486.81,1687.99,1490.86,1683.04,1490.86z"/>
		<path class="st8" d="M3015.34,1194.79c-1.11-7.96-2.32-15.93-3.76-24.01c-0.11-0.77-0.33-1.66-0.44-2.44
			c-1.55-8.4-3.32-16.7-5.31-25.11c-1.22-5.31-2.65-10.62-4.09-15.93c-0.89-2.99-1.66-5.86-2.54-8.85c-0.11-0.44-0.33-1-0.44-1.44
			c-1.11-3.54-2.21-7.19-3.32-10.73c-1.22-3.65-2.43-7.3-3.76-10.95c-0.66-1.99-1.33-3.98-2.1-5.97c-0.44-1.22-0.88-2.43-1.33-3.65
			c-7.41-19.69-16.26-39.38-26.66-58.96c-1.55-2.77-3.1-5.65-4.65-8.41c-0.55-0.99-1.11-1.99-1.66-2.98
			c-0.66-1.22-1.33-2.33-1.99-3.43c-4.65-8.08-9.62-16.15-14.93-24.23c-3.87-6.09-8.08-12.06-12.39-18.14
			c-1.99-2.88-4.09-5.64-6.19-8.52c-1.33-1.66-2.66-3.43-3.98-5.2c-3.54-4.54-7.08-9.18-10.84-13.72
			c-4.09-4.87-8.19-9.84-12.5-14.71c-1.77-1.99-3.54-3.98-5.31-5.87h-721.3c-0.02-0.02-0.04-0.03-0.07-0.05h-355.3
			c-1.8,0-3.59,0.05-5.37,0.16c-0.39,0.03-0.79,0.06-1.18,0.09c-0.67,0.05-1.35,0.1-2.03,0.17c-0.06,0-0.12,0.01-0.18,0.02
			c-0.33,0.03-0.64,0.06-0.97,0.1h-0.03c-0.39,0.04-0.8,0.09-1.19,0.15c-3.35,0.41-6.66,1.03-9.9,1.81
			c-0.46,0.11-0.92,0.23-1.39,0.35c-0.12,0.03-0.23,0.06-0.35,0.09c-0.62,0.16-1.25,0.34-1.87,0.52c-0.43,0.12-0.85,0.25-1.27,0.38
			c-0.67,0.21-1.34,0.42-2.01,0.64c-0.67,0.22-1.33,0.45-1.99,0.69c-0.36,0.12-0.72,0.25-1.07,0.39c-0.74,0.27-1.47,0.56-2.2,0.86
			c-0.62,0.25-1.24,0.5-1.86,0.77c-0.95,0.41-1.89,0.84-2.82,1.28c-0.59,0.27-1.18,0.56-1.76,0.86c-0.39,0.2-0.78,0.39-1.17,0.6
			c-0.69,0.36-1.38,0.73-2.06,1.11c-0.68,0.38-1.36,0.76-2.03,1.15l-0.01,0.01c-0.61,0.36-1.21,0.73-1.82,1.1
			c-0.14,0.09-0.27,0.17-0.4,0.26c-0.58,0.36-1.16,0.74-1.74,1.12c-0.56,0.37-1.11,0.74-1.66,1.13c-0.55,0.38-1.09,0.77-1.62,1.16
			c-0.36,0.27-0.71,0.53-1.07,0.8c-1.47,1.11-2.91,2.27-4.31,3.47c-0.28,0.24-0.56,0.49-0.85,0.74c-0.42,0.37-0.84,0.74-1.25,1.12
			c-0.42,0.38-0.83,0.75-1.23,1.15c-0.85,0.8-1.68,1.62-2.5,2.46c-0.42,0.44-0.84,0.88-1.26,1.33c-0.45,0.49-0.9,0.98-1.33,1.47
			c-0.3,0.33-0.59,0.67-0.88,1.01c-0.6,0.68-1.17,1.36-1.72,2.05c-0.28,0.34-0.56,0.69-0.84,1.04c-0.28,0.35-0.56,0.71-0.82,1.06
			c-0.55,0.72-1.09,1.45-1.61,2.18c-0.26,0.36-0.51,0.72-0.76,1.09c-0.25,0.36-0.51,0.73-0.75,1.1c-7.98,0.28-17.15,1.14-26.58,3.1
			c-35.16,7.33-57.37,26.73-64.48,56.21l-4.28-0.41c-5.71-0.54-10.89,3.33-11.98,8.96l-18.81,97.16
			c-1.25,6.45,3.33,12.57,9.87,13.19l27.11,2.59c6.12,0.58,11.55-3.9,12.13-10.02l9.36-98.06c0.56-5.88-3.57-11.12-9.33-12.03
			c6.13-26.57,21.48-46.5,53.52-53.23c7.07-1.48,13.92-2.04,20.14-2.06c-0.01,0.01-0.01,0.02-0.02,0.03
			c-0.2,0.33-0.38,0.68-0.56,1.02c-0.33,0.6-0.66,1.21-0.98,1.81c-0.39,0.75-0.78,1.51-1.15,2.27c-0.32,0.65-0.62,1.31-0.92,1.97
			c-0.16,0.36-0.33,0.72-0.48,1.08c-0.16,0.37-0.32,0.73-0.47,1.1c-0.31,0.73-0.61,1.46-0.9,2.2c-0.27,0.68-0.52,1.37-0.78,2.06
			c-0.15,0.42-0.3,0.84-0.44,1.26c-0.12,0.33-0.23,0.67-0.34,1.01c-0.07,0.21-0.14,0.4-0.21,0.61c-0.12,0.38-0.24,0.76-0.36,1.14
			c-0.17,0.55-0.33,1.09-0.49,1.64c-0.14,0.46-0.27,0.93-0.39,1.4c-0.09,0.38-0.21,0.77-0.31,1.16c-1.17,4.33-2.37,8.79-3.6,13.39
			c-0.21,0.76-0.41,1.53-0.62,2.3c-1.31,4.85-2.63,9.83-3.99,14.91c-0.29,1.1-0.58,2.2-0.88,3.31c-0.08,0.29-0.16,0.58-0.24,0.88
			c-0.21,0.81-0.43,1.63-0.65,2.46c-0.24,0.91-0.48,1.81-0.71,2.72c-0.41,1.57-0.83,3.14-1.25,4.72c-0.06,0.24-0.13,0.49-0.2,0.74
			c-0.25,0.93-0.5,1.87-0.74,2.8c-0.12,0.45-0.24,0.9-0.35,1.35c-0.37,1.39-0.73,2.77-1.09,4.17c0,0.03-0.01,0.04-0.02,0.06
			c-0.49,1.86-0.98,3.74-1.47,5.62h390.93v147.69H3015.34z"/>
		<path class="st13" d="M3015.34,1194.79c-1.11-7.96-2.32-15.93-3.76-24.01c-0.11-0.77-0.33-1.66-0.44-2.44
			c-1.55-8.4-3.32-16.7-5.31-25.11c-1.22-5.31-2.65-10.62-4.09-15.93c-0.89-2.99-1.66-5.86-2.54-8.85c-0.11-0.44-0.33-1-0.44-1.44
			c-1.11-3.54-2.21-7.19-3.32-10.73c-1.22-3.65-2.43-7.3-3.76-10.95c-0.66-1.99-1.33-3.98-2.1-5.97c-0.44-1.22-0.88-2.43-1.33-3.65
			c-7.41-19.69-16.26-39.38-26.66-58.96c-1.55-2.77-3.1-5.65-4.65-8.41c-0.55-0.99-1.11-1.99-1.66-2.98
			c-0.66-1.22-1.33-2.33-1.99-3.43c-4.65-8.08-9.62-16.15-14.93-24.23h-693.2h-519.96c-1.22,4.31-2.32,8.74-3.54,13.39
			c-0.22,0.78-0.44,1.55-0.66,2.32c-1.33,4.87-2.65,9.84-3.98,14.93c-0.33,1-0.55,2.1-0.88,3.21c-0.11,0.55-0.22,1-0.33,1.44
			c-0.44,1.55-0.88,3.1-1.22,4.65c-0.44,1.55-0.88,3.21-1.33,4.76c0,0.22-0.11,0.44-0.22,0.78c-0.11,0.78-0.33,1.55-0.55,2.33
			c-0.22,0.66-0.33,1.22-0.44,1.77c-0.44,1.44-0.77,2.77-1.11,4.2c-0.55,1.88-1,3.76-1.55,5.64c-0.33,1.44-0.78,2.99-1.11,4.54
			c-1.22,4.54-2.43,9.18-3.65,13.83c-0.55,2.32-1.11,4.53-1.77,6.86c-0.55,2.32-1.22,4.65-1.77,6.97c-0.55,2.32-1.22,4.65-1.77,6.97
			c-0.55,2.1-1,4.2-1.55,6.31c-1.55,6.08-3.1,12.17-4.54,18.14c-0.55,2.32-1.11,4.54-1.66,6.75c-0.22,0.78-0.33,1.55-0.55,2.21
			c-0.55,2.32-1.11,4.53-1.66,6.75c-0.11,0.44-0.11,0.77-0.22,1.22c-0.44,1.77-0.88,3.54-1.33,5.31c-0.22,0.78-0.33,1.55-0.55,2.21
			c-0.44,1.99-0.89,3.87-1.33,5.75c-0.22,1.22-0.55,2.32-0.77,3.43c-0.55,1.99-1,3.87-1.44,5.86c0,0.11,0,0.33-0.11,0.44
			c-0.22,1.1-0.44,2.21-0.66,3.21c-0.11,0.22-0.11,0.33-0.11,0.56c-0.22,0.88-0.44,1.77-0.66,2.65c-0.22,1-0.44,2.1-0.66,3.1
			c-0.55,2.1-1,4.09-1.44,6.2c-0.11,0.44-0.22,1-0.33,1.55c-0.55,2.44-1.11,4.98-1.66,7.41c-0.11,0.88-0.33,1.77-0.55,2.66
			c0,0.22-0.11,0.44-0.11,0.66c-0.22,0.77-0.33,1.66-0.55,2.43c-0.11,0.33-0.11,0.66-0.22,1c-0.22,1.22-0.44,2.43-0.77,3.65v0.11
			c-0.11,0.78-0.33,1.44-0.44,2.21c-0.44,2.33-0.88,4.53-1.33,6.75l32.52,0.11h12.28l67.04,0.11l82.86,0.11h14.83l487.76,0.88
			c-0.11-0.44-0.22-0.88-0.44-1.22H3015.34z"/>
		<path class="st13" d="M1893.46,1036.9c0.59-9.49-6.95-17.51-16.46-17.51h-75.34c-48.49,0-81.89,38.42-87.81,87.81l-17.49,214.55
			c-0.6,7.35,5.2,13.64,12.57,13.64h154.43c6.51,0,11.9-5.06,12.3-11.56L1893.46,1036.9z"/>
		<path class="st9" d="M1878.72,1050.54l-12.88,188.72l-4.51,66.03c0,8.5-6.89,15.39-15.38,15.39h-120.34
			c-21.14,0-14.85-31.35-13.15-51.13l13.3-155.11c0-2.99,0.15-5.95,0.46-8.87c4.1-39.65,35.41-70.49,73.43-70.49h45.11
			C1853.92,1035.08,1878.72,1035.08,1878.72,1050.54z"/>
		<path class="st14" d="M2161.76,1527.65c0,10.08-3.3,19.4-8.88,26.92c-50.28-13.87-53.6-51.94-52.32-69.33
			c4.95-1.86,10.32-2.87,15.92-2.87C2141.49,1482.36,2161.76,1502.63,2161.76,1527.65z"/>
		<path class="st8" d="M2989.35,1461.62c-2.88,9.4-5.86,18.37-8.85,27.1c-0.89,2.54-1.77,5.09-2.66,7.52
			c-1.33,3.65-2.66,7.3-3.87,10.84c0,0,0,0,0,0.11c-1.22,2.88-2.21,5.53-3.32,8.3c-1.66,4.42-3.43,8.63-5.09,12.83
			c-2.54,6.2-5.09,12.17-7.52,17.7c-0.55,1.33-1.11,2.54-1.66,3.76c-1.11,2.54-2.21,4.98-3.21,7.3c-2.21,4.87-4.42,9.51-6.53,13.83
			c-2.1,4.31-4.09,8.41-5.97,12.17c-7.08,13.94-13.05,25.44-15.71,30.42c-33.52-3.32-61.29-25.89-72.46-56.42
			c-3.32-9.18-5.09-19.14-5.09-29.43c0-47.68,38.61-86.29,86.29-86.29C2954.83,1441.38,2974.3,1449.01,2989.35,1461.62z"/>
		<path class="st9" d="M2973.97,1507.09c0,0,0,0,0,0.11c-1.22,2.88-2.21,5.53-3.32,8.3c-1.66,4.42-3.43,8.63-5.09,12.83
			c-2.54,6.2-5.09,12.17-7.52,17.7c-0.55,1.33-1.11,2.54-1.66,3.76c-1.11,2.54-2.21,4.98-3.21,7.3c-2.21,4.87-4.42,9.51-6.53,13.83
			c-4.09,1.33-8.41,1.99-12.94,1.99c-13.72,0-26-6.08-34.29-15.82c-6.86-7.85-10.95-18.14-10.95-29.43
			c0-19.47,12.17-35.95,29.32-42.48c4.98-1.77,10.29-2.88,15.93-2.88C2951.29,1482.31,2966.56,1492.38,2973.97,1507.09z"/>
		<path class="st14" d="M2973.97,1507.09c0,0,0,0,0,0.11c-1.22,2.88-2.21,5.53-3.32,8.3c-1.66,4.42-3.43,8.63-5.09,12.83
			c-2.54,6.2-5.09,12.17-7.52,17.7c-0.55,1.33-1.11,2.54-1.66,3.76c-37.17-16.48-39.71-48.9-38.61-64.61
			c4.98-1.77,10.29-2.88,15.93-2.88C2951.29,1482.31,2966.56,1492.38,2973.97,1507.09z"/>
		<path class="st15" d="M1865.84,1239.26l-4.51,66.03c0,8.5-6.89,15.39-15.38,15.39h-120.34c-21.14,0-14.85-31.35-13.15-51.13
			l13.3-155.11c0-2.99,0.15-5.95,0.46-8.87C1747.2,1154.44,1789.21,1221.43,1865.84,1239.26z"/>
		<path class="st9" d="M2295.34,1168.3h-224.38c-9.46,0-17.2-7.74-17.2-17.2v-118.5c0-9.46,7.74-17.2,17.2-17.2h224.38
			c9.46,0,17.2,7.74,17.2,17.2v118.5C2312.55,1160.56,2304.8,1168.3,2295.34,1168.3z"/>
		<path class="st9" d="M2013.22,1168.3h-100.53c-6.56,0-11.93-5.37-11.93-11.93v-129.06c0-6.56,5.37-11.93,11.93-11.93h100.53
			c6.56,0,11.93,5.37,11.93,11.93v129.06C2025.14,1162.93,2019.78,1168.3,2013.22,1168.3z"/>
		<path class="st9" d="M2585.8,1168.3h-224.38c-9.46,0-17.2-7.74-17.2-17.2v-118.5c0-9.46,7.74-17.2,17.2-17.2h224.38
			c9.46,0,17.2,7.74,17.2,17.2v118.5C2603,1160.56,2595.26,1168.3,2585.8,1168.3z"/>
		<path class="st9" d="M2872.32,1168.3h-224.38c-9.46,0-17.2-7.74-17.2-17.2v-118.5c0-9.46,7.74-17.2,17.2-17.2h224.38
			c9.46,0,17.2,7.74,17.2,17.2v118.5C2889.52,1160.56,2881.78,1168.3,2872.32,1168.3z"/>
		<path class="st9" d="M3005.83,1143.23c1.99,8.41,3.76,16.71,5.31,25.11h-76.33c-9.51,0-17.26-7.74-17.26-17.26V1032.6
			c0-9.51,7.74-17.26,17.26-17.26h20.47c0.55,0.99,1.11,1.99,1.66,2.98c1.55,2.77,3.1,5.65,4.65,8.41
			c10.4,19.58,19.25,39.27,26.66,58.96c0.44,1.22,0.88,2.43,1.33,3.65c0.77,1.99,1.44,3.98,2.1,5.97c1.33,3.65,2.54,7.3,3.76,10.95
			c1.11,3.54,2.21,7.19,3.32,10.73c0.11,0.44,0.33,1,0.44,1.44c0.89,2.98,1.66,5.86,2.54,8.85
			C3003.18,1132.61,3004.61,1137.92,3005.83,1143.23z"/>
	</g>
	<g>
		<path class="st8" d="M1112.65,1120.82c-4.18-6.35-20.8-2.8-37.11,7.94s-26.14,24.6-21.95,30.95c4.18,6.35,20.8,2.8,37.11-7.94
			C1107.01,1141.03,1116.84,1127.17,1112.65,1120.82z"/>
		<g>
			<path class="st8" d="M1027.45,1356.89l3.22,0.19c-0.03-0.07,1.25-56.23,6.18-78.95c9.18-42.33,33.17-75.47,33.43-75.76
				l-5.76-1.85c-0.28,0.31-4.83,7.35-11.28,20.36c-5.94,11.98-15.48,31.94-19.7,55.18
				C1029.38,1299.02,1027.33,1356.59,1027.45,1356.89z"/>
		</g>
		<path class="st16" d="M1085.64,1120.32c0,0-21.05-4.49-31.15,12.63c-10.1,17.12-10.66,46.86-17.4,56.59
			c-6.73,9.73-18.61,50.79-5.99,59.97c12.63,9.19,90.42-0.34,94.78-4.53c4.37-4.19-0.26-47.31-7.86-59.79
			C1110.43,1172.7,1128.95,1113.96,1085.64,1120.32z"/>
		<path class="st17" d="M1121.44,1328.02c-14.83-47.42,1.89-75.55,0.28-99.27c-1.2-17.76,2.24-18.21-0.85-23.09
			c-3.14-4.96-20.44-8.06-22.03-8.2c-1.23-0.65-1.53-6.19-1.51-11.63c0.02-6.53,0.52-13.47,0.52-13.47l-22.03-4.36l-1.31-0.26
			c0.06,15.32-3.97,25.38-6.9,27.74c-2.74,0.28-14.49,1.61-21.73,4.32c-2.73,1.02-4.81,2.24-5.53,3.67
			c-6.05,11.94-12.09,42.06-16.34,63.55c-2.37,11.98-4.17,21.27-5.11,23.24c-2.63,5.5-10.65,35.74-17.51,50.66l7.56,0.29
			c0,0,30.08-40.94,32.71-52.13c0.83-3.54,2.84-10.52,5.2-18.41c5.21,14.31,7.89,20.33,7.76,25.9c-0.17,7.22-5.06,13.71-15.29,36.65
			C1033.66,1345.91,1136.59,1376.45,1121.44,1328.02z"/>
		<path class="st17" d="M1065.14,1553.38c1.45,5.77,3.05,11.26,4.67,16.37c0.35,1.1,0.69,2.17,1.04,3.23
			c0.17,0.52,0.35,1.04,0.52,1.55c0.34,1.01,0.68,2,1.02,2.97c0.44,1.26,0.88,2.5,1.31,3.69c0.32,0.89,0.64,1.75,0.95,2.6
			c4.83,12.95,8.88,21.16,8.88,21.16l9.62-0.66c0,0-3.61-17.18-4.33-41.8c-0.02-0.88-0.05-1.76-0.07-2.66
			c-0.04-1.91-0.06-3.85-0.06-5.84c0-0.81,0.01-1.64,0.01-2.47c0.19-21.2,2.82-46.25,11.19-70.17
			c6.81-19.45,11.75-37.64,15.32-54.09c11.52-53.08,8.81-87.96,8.81-87.96l-54.13,6.33l-2.52,0.29
			c-0.23,24.86-0.87,58.62-1.43,85.01c-0.1,4.58-0.19,8.94-0.28,12.99c-0.37,16.94-0.66,28.53-0.66,28.53
			C1054.61,1494.87,1058.39,1526.5,1065.14,1553.38z"/>
		<path class="st18" d="M1097.85,1172.36c0,0-0.5,6.93-0.52,13.47c-12.33-0.35-18.85-11.6-21.52-17.83L1097.85,1172.36z"/>
		<path class="st17" d="M1131.47,1307.41c0,0-2.57,35.78-1.71,40.05c0.86,4.27-0.28,19.51-6.13,22.32
			C1117.78,1372.58,1106.23,1298.91,1131.47,1307.41z"/>
		<path class="st17" d="M1101.96,1178.54c0,0-29.17,0.48-29.19-17.69c-0.02-18.17-3.8-30.35,14.83-31.42
			c18.62-1.08,22.25,5.85,23.73,11.92S1109.55,1177.95,1101.96,1178.54z"/>
		<path class="st16" d="M1100.89,1128.98c0,0-7.99,21.32-20.25,24.47c-12.26,3.15-17.58-0.13-17.58-0.13s9.4-7.47,11.35-20.51
			C1074.42,1132.81,1094.86,1118.84,1100.89,1128.98z"/>
		<path class="st16" d="M1098.91,1130.71c0,0,5.96,4.76,7.42,9.39c1.45,4.63,2.11,14.15,4.88,13.83c0,0,6.02-14.49-0.75-22.69
			C1103.29,1122.55,1098.91,1130.71,1098.91,1130.71z"/>
		<path class="st19" d="M1121.29,1206.23c0,0,22.15,94.38,15.31,102.39c-6.84,8.01-24.38,9.29-26.94,7.58
			C1107.09,1314.49,1121.29,1206.23,1121.29,1206.23z"/>
		<path class="st16" d="M1100.01,1131.43c0,0-5.69,22.32-21.16,29.47c0,0,15.47-13.72,16.78-28.45
			C1096.95,1117.72,1100.01,1131.43,1100.01,1131.43z"/>
		<path class="st17" d="M1034.09,1548.72c3.11,33.21,16.82,54.7,16.82,54.7l4.68,4.26c0,0,4.26-24.32,7.34-52.16
			c2.93-26.46,6.95-54.47,11.5-63.02c6.8-12.77,11.81-38.89,15.41-66.48c5.96-45.66,8.07-95.38,8.07-95.38l-54.88-2.72
			c-5.52,9.28-7.92,24.5-8.5,41.8c-0.6,18.2,0.83,38.7,2.82,57.02c2.78,25.65,6.64,47.03,7.54,51.83c0,0.01,0,0.01,0.01,0.02
			c0.12,0.63-0.07,1.26-0.36,1.84C1033.62,1502.04,1032.04,1526.77,1034.09,1548.72z"/>
		<path class="st20" d="M1116.58,1541.79c-47.27,17.76-118.39-2.81-118.39-2.81s2.62-14.7,6.47-36.04
			c9.66-53.58,27.06-149.07,30.12-159.2c4.28-14.15,19.83-47.16,19.83-47.16c7.29,2.43,14.83,3.7,22.02,4.23
			c20.77,1.56,38.58-2.9,38.58-2.9s2.9,9.71,9.09,29.99C1130.5,1348.19,1116.58,1541.79,1116.58,1541.79z"/>
		<path class="st11" d="M1124.06,1242.63c-2.36,23.34-8.84,55-8.84,55c-3.58,1.89-7.22,3.28-10.85,4.26
			c-25.09,6.81-49.75-5.59-49.75-5.59s-0.04-0.72-0.1-1.6c-0.05-0.72-0.12-1.53-0.21-2.13c-0.18-1.32-6.14-15.49-6.14-15.49
			s-0.22,1.1-0.62,2.98c-2.18,10.36-9.65,44.39-14.23,47.46c-2.65,1.77-11.15,1.8-19.11-0.37c-8.29-2.25-16.02-6.9-16.02-14.45
			c0-9.66,17.57-53.36,30.23-83.3c0.01-0.03,0.01-0.04,0.01-0.04c6.74-15.96,10.66-27.07,15.81-28.31c0,0,34.68,14.11,53.89,11.95
			c6.6-0.74,18.71-6.32,22.43-7.7c0.11,0.11,0.21,0.23,0.31,0.35c0.08,0.09,0.15,0.18,0.22,0.28c0.08,0.1,0.14,0.21,0.2,0.31
			c2.81,4.15,2.37,11.03,2.51,13.65C1124.09,1225.01,1125.12,1232.18,1124.06,1242.63z"/>
		<path class="st19" d="M1048.16,1277.32c0,0,5.95,14.21,6.14,15.54c0.08,0.6,0.16,1.41,0.21,2.14c2.88,2.35,6.36,4.13,9.9,5.21
			c10.07,3.05,14.45-16.26,13.85-25.89c-0.6-9.63-14.85-37.13-19.59-37.7C1053.94,1236.04,1048.16,1277.32,1048.16,1277.32z"/>
		<path class="st3" d="M1047.55,1280.3c0.39-1.88,0.61-2.99,0.61-2.99C1047.85,1278.33,1047.65,1279.33,1047.55,1280.3z"/>
		<g>
			<path class="st21" d="M1089.14,1304.07c18.39,0,25.68-5.16,26.24-5.59l1.19-8.66c-0.18,0.13-24.85,14.95-63.03,0.76l0.81,6.56
				C1069.03,1302.6,1079.59,1304.07,1089.14,1304.07z"/>
		</g>
		<path class="st19" d="M998.19,1313.04c0,7.57,7.72,12.23,16.02,14.49c-11.43-13.61,13.58-95.95,14.22-98.05
			C1015.76,1259.52,998.19,1303.35,998.19,1313.04z"/>
		<g>
			<path class="st8" d="M1077.99,1613.02h6.14c2.06-0.32,3.58-0.92,5.69-1.2c3.2-0.42,4.68,0.89,4.97,1.2
				c0.04,0.04,0.06,0.06,0.06,0.06h26.09c0.66-0.94,0.03-3.11-0.59-4.71c-0.42-1.08-1.32-1.91-2.44-2.23
				c-2.77-0.8-8.22-1.51-13.22-6.04c-2.81-2.54-13.57-9.34-13.57-9.34l-0.06-0.01c-0.24,0-1.36,0.35-6.26,4.48
				c-2.53,2.13-6.84-3.01-6.84-3.01s-0.81,0.67-1.41,1.92c-0.49,0.98-0.84,2.34-0.56,4c0.39,2.35-0.87,6.72-1.87,9.67
				c-0.61,1.79-1.12,3.06-1.12,3.06S1072.71,1612.36,1077.99,1613.02z"/>
			<path class="st9" d="M1076.55,1594.15c1.47,1.03,4.56,3.07,6.61,3.33c2.77,0.36,7.95-6.71,7.95-6.71l-0.06-0.01
				c-0.24,0-1.36,0.35-6.26,4.48c-2.53,2.13-6.84-3.01-6.84-3.01S1077.16,1592.9,1076.55,1594.15z"/>
			<path class="st9" d="M1077.99,1613.02h6.14c2.06-0.32,3.58-0.92,5.69-1.2c3.2-0.42,4.68,0.89,4.97,1.2
				c0.04,0.04,0.06,0.06,0.06,0.06h26.09c0.66-0.94,0.03-3.11-0.59-4.71c-0.79-0.71-1.02,3.06-1.45,3.66s-21.28,0.22-22.49-0.66
				c-1.2-0.88-4.82-2.41-9.85-1.2c-4.38,1.05-10.84-1.64-12.44-2.35c-0.61,1.79-1.12,3.06-1.12,3.06
				S1072.71,1612.36,1077.99,1613.02z"/>
		</g>
		<g>
			<path class="st8" d="M1045.22,1613.02h6.14c2.06-0.32,3.58-0.92,5.69-1.2c3.2-0.42,4.68,0.89,4.97,1.2
				c0.04,0.04,0.06,0.06,0.06,0.06h26.09c0.66-0.94,0.03-3.11-0.59-4.71c-0.42-1.08-1.32-1.91-2.44-2.23
				c-2.77-0.8-8.22-1.51-13.22-6.04c-2.81-2.54-13.57-9.34-13.57-9.34l-0.06-0.01c-0.24,0-1.36,0.35-6.26,4.48
				c-2.53,2.13-6.84-3.01-6.84-3.01s-0.81,0.67-1.41,1.92c-0.49,0.98-0.84,2.34-0.56,4c0.39,2.35-0.87,6.72-1.87,9.67
				c-0.61,1.79-1.12,3.06-1.12,3.06S1039.94,1612.36,1045.22,1613.02z"/>
			<path class="st9" d="M1043.78,1594.15c1.47,1.03,4.56,3.07,6.61,3.33c2.77,0.36,7.95-6.71,7.95-6.71l-0.06-0.01
				c-0.24,0-1.36,0.35-6.26,4.48c-2.53,2.13-6.84-3.01-6.84-3.01S1044.38,1592.9,1043.78,1594.15z"/>
			<path class="st9" d="M1045.22,1613.02h6.14c2.06-0.32,3.58-0.92,5.69-1.2c3.2-0.42,4.68,0.89,4.97,1.2
				c0.04,0.04,0.06,0.06,0.06,0.06h26.09c0.66-0.94,0.03-3.11-0.59-4.71c-0.79-0.71-1.02,3.06-1.45,3.66
				c-0.44,0.6-21.28,0.22-22.49-0.66c-1.2-0.88-4.81-2.41-9.85-1.2c-4.38,1.05-10.84-1.64-12.44-2.35
				c-0.61,1.79-1.12,3.06-1.12,3.06S1039.94,1612.36,1045.22,1613.02z"/>
		</g>
		<path class="st21" d="M1004.65,1502.94c9.66-53.58,27.06-149.07,30.12-159.2c4.28-14.15,19.83-47.16,19.83-47.16
			c7.29,2.43,14.83,3.7,22.02,4.23C1077.46,1312.37,1083.54,1427.86,1004.65,1502.94z"/>
		<g>
			<path class="st8" d="M1078.32,1357.15l-3.22-0.24c0.04-0.07,6.29-56.37,4.46-79.74c-3.42-43.55-22.75-79.91-22.98-80.23
				l5.96-1.07c0.24,0.34,3.81,8,8.45,21.87c4.28,12.78,11.06,34.01,12.12,57.81C1084.17,1299.05,1078.48,1356.87,1078.32,1357.15z"
				/>
		</g>
		<g>
			<path class="st22" d="M1039.35,1344.79c0,0,3.13-7.69,8.09-9.61l25.37,4.78c0,0-6.26,5.96-6.85,9.84L1039.35,1344.79z"/>
			<path class="st8" d="M1071.2,1388.2l-43.36-8.17c-2.04-0.38-3.38-2.35-2.99-4.38l5.42-28.75c0.38-2.04,2.35-3.38,4.38-2.99
				l43.36,8.17c2.04,0.38,3.38,2.35,2.99,4.38l-5.42,28.75C1075.2,1387.25,1073.23,1388.59,1071.2,1388.2z"/>
			<g>
				
					<rect x="1034.74" y="1328.92" transform="matrix(1 8.758278e-03 -8.758278e-03 1 11.7955 -9.1019)" class="st3" width="20.73" height="26.58"/>
				
					<rect x="1033.55" y="1328.91" transform="matrix(1 8.758099e-03 -8.758099e-03 1 11.7952 -9.0913)" class="st23" width="20.74" height="26.58"/>
			</g>
			<g>
				
					<rect x="1040.34" y="1335.85" transform="matrix(0.7941 0.6078 -0.6078 0.7941 1036.3903 -360.8188)" class="st24" width="20.74" height="26.58"/>
				
					<rect x="1038.5" y="1334.44" transform="matrix(0.7941 0.6078 -0.6078 0.7941 1035.0886 -359.9897)" class="st25" width="20.74" height="26.58"/>
			</g>
			<path class="st26" d="M1060.6,1386.21l-41.52-7.82c-2.55-0.48-4.22-2.93-3.74-5.48l5.07-26.9c0.48-2.55,2.93-4.22,5.48-3.74
				l41.52,7.82c2.55,0.48,4.22,2.93,3.74,5.48l-5.07,26.9C1065.6,1385.01,1063.15,1386.69,1060.6,1386.21z"/>
		</g>
		<path class="st8" d="M1050.79,1143.94c0,0-13.27-26.42,5.27-36.86c18.55-10.44,32.12-6.34,42.33,6.43L1050.79,1143.94z"/>
		<path class="st26" d="M1125.51,1110.61c-3.82-6.12-17.17-5.13-33.29,1.47c-6.3,2.58-13.01,6.02-19.75,10.21
			c-8.38,5.23-15.67,10.94-21.4,16.54c-10.67,10.44-15.88,20.43-12.43,25.97c1.06,1.69,2.64,2.78,5.02,3.42
			c2.36-5.09,9.15-9.86,11.07-13.82c2.71-5.61,9.58-15.76,22.15-23.6c9.65-6.02,19.25-9.56,25.86-9.99
			c3.84-0.25,6.68,0.56,7.92,2.55c0.97,1.56,0.87,3.67-0.13,6.11c0.94,1.58,2.01,3.82,2.89,6.78
			C1123.87,1125.93,1128.93,1116.09,1125.51,1110.61z"/>
		<path class="st17" d="M1001.38,1340.93c0,0-7.19,7.36-8.33,8.21c-1.14,0.85-2.46,8.45-1.43,9.26c2.07,1.61,3.58-2.11,6.84-3.96
			c3.27-1.85,5.13-4.45,5.13-3.59s-4.14,4.13-3.64,4.85c0.51,0.71,6.13-3.21,7.41-4.06c1.28-0.86,1.57-10.41,1.57-10.41
			L1001.38,1340.93z"/>
	</g>
	<g>
		<path class="st8" d="M934.94,1161.58l1.74-0.12l2.11-6.81c8.13-20.16,0.86-27.51-4.18-30.91c-6.34-4.28-13.08-4.94-13.08-4.94
			c-3.75-0.54-6.98-0.38-9.75,0.28c-0.01,0-0.03,0-0.03,0c-30.36-6.26-33.26,49.71-28.75,53.12c4.52,3.41,15.45,3.02,15.45,3.02
			c-0.6-0.59-1.25-1.92-1.25-1.92c3.31,2.71,13.1,1.75,13.1,1.75c-3.81-4.08-5.03-7.98-4.94-11.39l7.92-0.56
			c2.01,5.15,5.13,10.2,7.97,12.35c5.24,3.96,15.72,2.97,15.72,2.97c-0.49-0.53-0.87-2.18-0.87-2.18c0.38,1.05,2.28,1.78,2.28,1.78
			c1.3,0,4.01-1.33,4.01-1.33S936.23,1176.66,934.94,1161.58z"/>
		<path class="st17" d="M947.71,1305.82c23.81-6.06,49.99-43,49.99-43L991,1257c-6.94,8.18-35.81,22.28-35.81,22.28
			c0.15-7.49-0.04-14.32-0.51-20.54c-3.2-42.26-19.13-56.34-23.48-59.43c-0.7-0.5-1.1-0.71-1.1-0.71s-0.02,0.31-0.04,0.89
			c-0.06,1.26-0.18,3.79-0.3,7.26C928.87,1232.61,927.81,1310.89,947.71,1305.82z"/>
		<path class="st17" d="M991,1257c0.1-1,0.77-15.52,3.66-18.28c2.88-2.76,8.58-6.53,10.22-6.22c1.64,0.3,7.19,9.55,4.57,15.92
			c-2.62,6.37-11.74,14.4-11.74,14.4L991,1257z"/>
		<g>
			<path class="st27" d="M985.08,1258.69l15.68,0.66c0.52,0.02,0.96-0.38,0.98-0.9l1.25-29.91c0.02-0.52-0.38-0.96-0.9-0.98
				l-15.68-0.66c-0.52-0.02-0.96,0.38-0.98,0.9l-1.25,29.9C984.15,1258.23,984.56,1258.67,985.08,1258.69z"/>
			<path class="st28" d="M989.15,1258.86l14.23,0.59c0.92,0.04,1.7-0.68,1.74-1.6l1.19-28.45c0.04-0.92-0.68-1.7-1.6-1.74
				l-14.23-0.59c-0.92-0.04-1.7,0.68-1.74,1.6l-1.19,28.45C987.51,1258.04,988.23,1258.82,989.15,1258.86z"/>
		</g>
		<path class="st17" d="M1006.06,1233.61c0,0-4.27-4.77-8.55-1.13c-4.28,3.65,0.28,11.44,3.99,13.57c3.71,2.13,4.9,3.24,4.9,3.24
			L1006.06,1233.61z"/>
		<path class="st29" d="M895.86,1551.51c1.45,5.77,3.05,11.26,4.67,16.37c0.35,1.1,0.69,2.17,1.04,3.23
			c0.17,0.52,0.35,1.04,0.52,1.55c0.34,1.01,0.68,2,1.02,2.97c0.44,1.26,0.88,2.5,1.31,3.69c0.32,0.88,0.64,1.75,0.95,2.6
			c4.83,12.95,8.88,21.16,8.88,21.16l9.62-0.66c0,0-3.61-17.18-4.33-41.8c-0.02-0.88-0.05-1.76-0.07-2.66
			c-0.04-1.91-0.06-3.85-0.06-5.84c0-0.81,0.01-1.64,0.01-2.47c0.19-21.2,2.82-46.25,11.19-70.18
			c6.81-19.45,11.75-37.64,15.32-54.09c11.52-53.08,8.81-87.96,8.81-87.96l-54.13,6.33l-2.52,0.29c-0.23,24.86-0.87,58.62-1.43,85
			c-0.1,4.58-0.19,8.94-0.28,12.99c-0.37,16.94-0.66,28.53-0.66,28.53C885.32,1493.01,889.1,1524.64,895.86,1551.51z"/>
		<path class="st17" d="M870.03,1331.37c10.23-22.94,15.12-29.43,15.29-36.65c0.14-5.71-2.68-11.87-8.15-26.97
			c-1.29-3.56-2.18-7.22-2.72-10.92c-4.32-29.11,12.51-60.59,22.98-62.73c2.91-0.77,7.85-11.29,7.79-28.23l1.31,0.26l22.03,4.36
			c0,0-0.5,6.93-0.52,13.47c-0.01,5.44,0.28,10.98,1.51,11.63c1.59,0.14,3.03,0.43,3.03,0.43s18.65,13.1,19.85,30.86
			c1.61,23.73-15.12,51.85-0.28,99.27C967.3,1374.59,864.38,1344.05,870.03,1331.37z"/>
		<path class="st18" d="M928.56,1170.49c0,0-0.5,6.93-0.52,13.47c-12.33-0.35-18.85-11.6-21.52-17.83L928.56,1170.49z"/>
		<path class="st17" d="M932.68,1176.68c0,0-29.17,0.48-29.19-17.69c-0.02-18.17-3.8-30.35,14.83-31.42
			c18.62-1.08,22.25,5.85,23.73,11.92C943.53,1145.55,940.27,1176.09,932.68,1176.68z"/>
		<path class="st8" d="M931.6,1127.12c0,0-7.99,21.32-20.25,24.47c-12.26,3.15-17.57-0.13-17.57-0.13s9.4-7.47,11.35-20.51
			C905.13,1130.95,925.58,1116.97,931.6,1127.12z"/>
		<path class="st8" d="M929.62,1128.85c0,0,5.97,4.76,7.42,9.39c1.45,4.63,2.11,14.15,4.88,13.83c0,0,6.02-14.49-0.75-22.69
			C934.01,1120.69,929.62,1128.85,929.62,1128.85z"/>
		<path class="st17" d="M832.09,1355.74l8.76,2.63c0,0,28.89-47.93,31.52-60.41c0.86-4.06,2.96-12.19,5.41-21.29
			c5.07-18.85,11.62-41.92,11.62-41.92l2.16-9.34l7.35-31.85c0,0-14.08,1.44-22.32,4.88c-2.73,1.14-4.81,2.5-5.53,4.09
			c-6.05,13.3-12.09,46.88-16.34,70.83c-2.37,13.35-4.17,23.71-5.11,25.91C846.97,1305.4,838.95,1339.1,832.09,1355.74z"/>
		<path class="st8" d="M930.73,1129.57c0,0-5.69,22.33-21.16,29.47c0,0,15.47-13.72,16.78-28.45
			C927.66,1115.86,930.73,1129.57,930.73,1129.57z"/>
		<path class="st30" d="M864.81,1546.85c3.11,33.21,16.82,54.7,16.82,54.7l4.68,4.26c0,0,4.26-24.32,7.34-52.16
			c2.93-26.46,6.95-54.47,11.5-63.02c6.8-12.77,11.81-38.89,15.41-66.48c5.96-45.66,8.07-95.38,8.07-95.38l-54.88-2.72
			c-5.52,9.28-7.92,24.5-8.5,41.8c-0.6,18.2,0.83,38.7,2.82,57.02c2.78,25.65,6.64,47.03,7.54,51.83c0,0.01,0,0.01,0.01,0.02
			c0.12,0.63-0.07,1.26-0.36,1.84C864.33,1500.18,862.76,1524.91,864.81,1546.85z"/>
		<path class="st10" d="M928.85,1255.1c1.23,30.15,5.74,60,18.87,58.08c16.09-2.35,20.28-17.37,21.13-28.53
			c0.53-6.95-0.23-12.4-0.23-12.4s-7.92-0.04-9.2-1.22c-6.08-5.62-4.27-60.71-7.29-66.43c-3.01-5.72-22.54-9.39-22.54-9.39
			S927.63,1225.31,928.85,1255.1z"/>
		<path class="st10" d="M928.85,1255.1c1.23,30.15,5.74,60,18.87,58.08c16.09-2.35,20.28-17.37,21.13-28.53
			c-3.95-0.2-10.9-1.16-13.67-5.38c-3.96-6.03-16.3-44.87-16.3-44.87S934.04,1243.13,928.85,1255.1z"/>
		<path class="st8" d="M895.86,1551.51c1.45,5.77,3.05,11.26,4.67,16.37c0.35,1.1,0.69,2.17,1.04,3.23
			c0.17,0.52,0.35,1.04,0.52,1.55c0.34,1.01,0.68,2,1.02,2.97c0.44,1.26,0.88,2.5,1.31,3.69c0.32,0.88,0.64,1.75,0.95,2.6
			c4.83,12.95,8.88,21.16,8.88,21.16l9.62-0.66c0,0-3.61-17.18-4.33-41.8c-0.02-0.88-0.05-1.76-0.07-2.66
			c-0.04-1.91-0.06-3.85-0.06-5.84c0-0.81,0.01-1.64,0.01-2.47c0.19-21.2,2.82-46.25,11.19-70.18
			c6.81-19.45,11.75-37.64,15.32-54.09c-5.72,1.18-10.76-0.02-25.37-1.25c-1.54-0.13-8.88,8.96-16.14,21
			c-0.37,16.94-8.69,25.45-8.69,25.45C885.32,1493.01,889.1,1524.64,895.86,1551.51z"/>
		<path class="st26" d="M864.81,1546.85c3.11,33.21,16.82,54.7,16.82,54.7l4.68,4.26c0,0,4.26-24.32,7.34-52.16
			c2.93-26.46,6.95-54.47,11.5-63.02c6.8-12.77,11.81-38.89,15.41-66.48c-5.05,2.1-22.24,7.56-52.49,0.72
			c2.78,25.65,6.64,47.03,7.54,51.83c0,0.01,0,0.01,0.01,0.02c0.12,0.63-0.07,1.26-0.36,1.84
			C864.33,1500.18,862.76,1524.91,864.81,1546.85z"/>
		<path class="st26" d="M854.3,1385.24c0,0,11.48,3.55,28.4,5.89c20.94,2.9,50.22,3.94,76.37-5.89c0,0,2.15-38.91-4.04-59.19
			c-6.2-20.29-9.09-29.99-9.09-29.99s-24.82,6.22-50.03,1.4c-3.54-0.67-7.09-1.57-10.57-2.73c0,0-15.55,33.02-19.83,47.16
			C861.22,1356.03,854.3,1385.24,854.3,1385.24z"/>
		<path class="st8" d="M854.3,1385.24c0,0,11.48,3.55,28.4,5.89c31.02-17.59,15.89-91.6,15.89-91.6c-0.92-0.75-1.82-1.44-2.69-2.07
			c-3.54-0.67-7.09-1.57-10.57-2.73c0,0-15.55,33.02-19.83,47.16C861.22,1356.03,854.3,1385.24,854.3,1385.24z"/>
		<path class="st12" d="M828.91,1311.18c0,7.58,7.72,12.23,16.02,14.49c7.97,2.18,16.46,2.15,19.12,0.37
			c4.58-3.07,12.05-37.21,14.23-47.6c0.39-1.88,0.61-2.99,0.61-2.99s5.95,14.21,6.14,15.53c0.08,0.6,0.16,1.42,0.21,2.14
			c0.06,0.87,0.1,1.6,0.1,1.6s32.32,16.31,60.6,1.33c0,0,11.5-66.46,6.51-77.9c-2.48-5.68-15.42-17.41-20.6-22.47
			c-1.16-1.14-1.05-3.39-0.6-5.45c0.37-1.74-1.19-3.27-2.91-2.82c-3.33,0.87-9.32,0.72-15.74-1.39c-3.2-1.04-6.5-2.57-9.62-4.7
			c-0.91-0.62-2.14-0.05-2.28,1.04c-0.49,3.96-1.69,11.2-3.87,11.2c-3.01-0.02-23.55,2.5-25.06,5.05
			c-0.52,0.88-5.86,12.97-12.61,28.98c0,0-0.01,0.01-0.01,0.04C846.48,1257.66,828.91,1301.49,828.91,1311.18z"/>
		<path class="st10" d="M878.88,1275.46c0,0,5.95,14.21,6.14,15.53c0.08,0.6,0.16,1.42,0.21,2.14c2.88,2.35,6.36,4.13,9.9,5.21
			c10.07,3.05,14.45-16.26,13.85-25.89c-0.6-9.63-14.85-37.13-19.59-37.7C884.65,1234.17,878.88,1275.46,878.88,1275.46z"/>
		<path class="st3" d="M878.27,1278.44c0.39-1.88,0.61-2.99,0.61-2.99C878.57,1276.47,878.36,1277.47,878.27,1278.44z"/>
		<g>
			<path class="st31" d="M919.57,1303.38c18.39,0,25.97-6.33,26.53-6.76l1.19-8.66c-0.18,0.13-24.85,14.95-63.03,0.76l0.81,6.56
				C899.75,1300.73,910.02,1303.38,919.57,1303.38z"/>
		</g>
		<path class="st10" d="M828.91,1311.18c0,7.58,7.72,12.23,16.02,14.49c-11.43-13.61,13.58-95.95,14.22-98.05
			C846.48,1257.66,828.91,1301.49,828.91,1311.18z"/>
		<path class="st10" d="M896.82,1193.56c0,0,15.38,9.74,27.02,7.44c0,0,2.79-1.76-1.06-3.54c-3.62-1.66-12.04-6.58-10.19-11.43
			c-3.2-1.04-6.5-2.57-9.62-4.7c-0.91-0.62-2.14-0.05-2.28,1.04C900.2,1186.32,899,1193.56,896.82,1193.56z"/>
		<g>
			<path class="st8" d="M908.71,1611.16h6.14c2.06-0.32,3.58-0.92,5.69-1.2c3.2-0.42,4.68,0.89,4.97,1.2
				c0.04,0.04,0.06,0.06,0.06,0.06h26.09c0.66-0.94,0.03-3.11-0.59-4.71c-0.42-1.09-1.32-1.91-2.44-2.23
				c-2.77-0.8-8.22-1.51-13.22-6.04c-2.81-2.54-13.57-9.34-13.57-9.34l-0.06-0.01c-0.24,0-1.36,0.35-6.26,4.48
				c-2.53,2.13-6.84-3.01-6.84-3.01s-0.81,0.67-1.41,1.92c-0.49,0.99-0.84,2.34-0.56,4.01c0.39,2.35-0.87,6.72-1.87,9.67
				c-0.61,1.79-1.12,3.06-1.12,3.06S903.43,1610.5,908.71,1611.16z"/>
			<path class="st9" d="M907.27,1592.28c1.47,1.03,4.56,3.07,6.61,3.34c2.77,0.36,7.95-6.71,7.95-6.71l-0.06-0.01
				c-0.24,0-1.36,0.35-6.26,4.48c-2.53,2.13-6.84-3.01-6.84-3.01S907.87,1591.04,907.27,1592.28z"/>
			<path class="st9" d="M908.71,1611.16h6.14c2.06-0.32,3.58-0.92,5.69-1.2c3.2-0.42,4.68,0.89,4.97,1.2
				c0.04,0.04,0.06,0.06,0.06,0.06h26.09c0.66-0.94,0.03-3.11-0.59-4.71c-0.79-0.71-1.02,3.06-1.45,3.66
				c-0.44,0.6-21.28,0.22-22.49-0.66c-1.2-0.88-4.82-2.41-9.85-1.2c-4.38,1.05-10.84-1.64-12.44-2.35
				c-0.61,1.79-1.12,3.06-1.12,3.06S903.43,1610.5,908.71,1611.16z"/>
		</g>
		<g>
			<path class="st8" d="M875.94,1611.16h6.14c2.06-0.32,3.58-0.92,5.69-1.2c3.2-0.42,4.68,0.89,4.97,1.2
				c0.04,0.04,0.06,0.06,0.06,0.06h26.09c0.66-0.94,0.03-3.11-0.59-4.71c-0.42-1.09-1.32-1.91-2.44-2.23
				c-2.77-0.8-8.22-1.51-13.22-6.04c-2.81-2.54-13.57-9.34-13.57-9.34l-0.06-0.01c-0.24,0-1.36,0.35-6.26,4.48
				c-2.53,2.13-6.84-3.01-6.84-3.01s-0.81,0.67-1.41,1.92c-0.49,0.99-0.84,2.34-0.56,4.01c0.39,2.35-0.87,6.72-1.87,9.67
				c-0.61,1.79-1.12,3.06-1.12,3.06S870.65,1610.5,875.94,1611.16z"/>
			<path class="st9" d="M874.5,1592.28c1.47,1.03,4.56,3.07,6.61,3.34c2.77,0.36,7.95-6.71,7.95-6.71l-0.06-0.01
				c-0.24,0-1.36,0.35-6.26,4.48c-2.53,2.13-6.84-3.01-6.84-3.01S875.1,1591.04,874.5,1592.28z"/>
			<path class="st9" d="M875.94,1611.16h6.14c2.06-0.32,3.58-0.92,5.69-1.2c3.2-0.42,4.68,0.89,4.97,1.2
				c0.04,0.04,0.06,0.06,0.06,0.06h26.09c0.66-0.94,0.03-3.11-0.59-4.71c-0.79-0.71-1.02,3.06-1.45,3.66
				c-0.44,0.6-21.28,0.22-22.49-0.66s-4.82-2.41-9.85-1.2c-4.38,1.05-10.84-1.64-12.44-2.35c-0.61,1.79-1.12,3.06-1.12,3.06
				S870.65,1610.5,875.94,1611.16z"/>
		</g>
		<g>
			<path class="st8" d="M810.39,1393.06c0.61-3.05,2.75-5.53,5.67-6.61c4.73-1.75,12.47-3.33,21.99-0.54
				c16.07,4.72,17.64,14.6,16.58,21.7c-1.06,7.1,2.09,18.42,1.62,26.48c-0.46,8.05-2.77,28.29-14.67,27.23
				c-11.9-1.06-50.24-11.37-50.24-11.37s-6.62-12.61,6.98-30.87C806.4,1408.24,809.33,1398.38,810.39,1393.06z"/>
			<g>
				<g>
					<path class="st8" d="M817.75,1383.75l3.18,0.29c0,0,0.37-2.2,1.83-3.58c1.12-1.06,2.68-1.44,4.61-1.13
						c1.83,0.29,3.15,1.13,3.82,2.49c0.94,1.9,0.42,4.36,0.41,4.38l3.1,0.72c0.04-0.17,0.94-4.16-0.69-7.5
						c-1.12-2.31-3.11-3.65-5.88-4.17c-2.85-0.46-5.26,0.24-7.17,2.07C818.35,1379.84,817.78,1383.59,817.75,1383.75z"/>
				</g>
				<g>
					<path class="st26" d="M783.46,1448.15c0,0,38.35,10.33,50.25,11.37c11.9,1.08,14.21-19.15,14.65-27.23
						c0.47-8.03-2.67-19.36-1.62-26.48c0.22-1.34,0.34-2.84,0.24-4.34c-0.31-6.34-3.86-13.53-16.79-17.33
						c-9.55-2.81-17.26-1.21-22.01,0.55c-2.9,1.08-5.07,3.55-5.67,6.59c-0.14,0.62-0.27,1.38-0.44,2.12
						c-1.37,5.65-4.53,14.42-11.63,23.91C776.82,1435.55,783.46,1448.15,783.46,1448.15z"/>
					<path class="st8" d="M842.57,1433.98c0,0-5.33,5.14-12.54,3.33c-7.21-1.81-10.57-8.56-10.57-8.56L842.57,1433.98z"/>
					<path class="st8" d="M814.76,1427.69c0,0-5.33,5.14-12.54,3.33c-7.21-1.81-10.57-8.56-10.57-8.56L814.76,1427.69z"/>
					<path class="st8" d="M802.5,1391.27c-0.14,0.62-0.27,1.38-0.44,2.12c3.06,6.3,8.85,14.36,18.65,16.23
						c16.67,3.25,26.26-8.16,26.26-8.16c-0.31-6.34-3.86-13.53-16.79-17.33c-9.55-2.81-17.26-1.21-22.01,0.55
						C805.27,1385.76,803.1,1388.23,802.5,1391.27z"/>
					<path class="st28" d="M820.48,1413.12L820.48,1413.12c1.04,0.24,2.09-0.42,2.33-1.47l0.39-1.72c0.24-1.04-0.42-2.09-1.47-2.33
						l0,0c-1.04-0.24-2.09,0.42-2.33,1.47l-0.39,1.72C818.78,1411.83,819.44,1412.88,820.48,1413.12z"/>
				</g>
			</g>
		</g>
		<path class="st17" d="M832.71,1354.28c0,0-2.66,6.27-5.44,8.02c-2.77,1.75-5.41,5.95-5.98,9.34c-1.06,6.21,3.71,10.07,7.21,10.07
			c3.5,0,6.85-4.77,8.91-16.18c0.11-0.63,3.44-7.17,3.44-7.17L832.71,1354.28z"/>
	</g>
	<g>
		<g>
			<path class="st8" d="M1352.56,1613.96l2.18-233.18c0,0,1.88-16.79,16.53-16.79c15.63,0,16.53,16.79,16.53,16.79
				s-0.23,1.45-1.83,1.45c-1.68,0-1.96-1.45-1.96-1.45s-0.69-12.95-12.74-12.95c-11.29,0-12.75,12.95-12.75,12.95v233.18H1352.56z"
				/>
			<path class="st8" d="M1360.54,1613.96h-9.72l0.87-10.17c0,0-0.08-1.41,1.88-1.49c1.83-0.07,5.43-0.33,5.77,0.77
				C1359.63,1604.04,1360.54,1613.96,1360.54,1613.96z"/>
		</g>
		<path class="st17" d="M1371.39,1351.63l0.66,3.33c0,0,16.49-0.06,20.34,17.6c0,0,1.05,7.35-4.25,5.78s-4.48-5.32-11.98-7.38
			c-7.51-2.05-12.4-3.63-13.53-9.09l-1.23-6.08L1371.39,1351.63z"/>
		<path class="st12" d="M1313.1,1207.05c0,0,4.36,17.16,8.12,32.84c1.51,6.32,2.93,12.4,3.93,17.02c1.02,4.75,1.6,7.96,1.38,8.32
			c-3.27,5.31,2.7,37.68,7.43,49.43c0.42,1.04,0.99,2.26,1.68,3.62c6.61,12.96,24.2,38.38,24.2,38.38s4.96,0.52,8.21-0.71
			c2.71-1.03,4.56-4.34,4.56-4.34c-1.57-2.53-7.94-32.45-16.13-49.22c-3.5-7.18-8.67-73.75-15.45-82.71
			C1335.36,1212.22,1313.1,1207.05,1313.1,1207.05z"/>
		<path class="st10" d="M1326.52,1265.24c-3.27,5.31,2.7,37.68,7.43,49.43c0.42,1.04,0.99,2.26,1.68,3.62
			c6.32-27.94-4.15-67.51-4.15-67.51c-2.61,1.03-4.7,3.19-6.34,6.14C1326.17,1261.67,1326.74,1264.88,1326.52,1265.24z"/>
		<path class="st32" d="M1280.76,1588.28c0,0-1.68,25.28,3.1,25.64c0.63,0.05,24.22,0.05,24.22,0.05l30.42,0
			c0,0-0.51-7.43-9.31-8.96c-8.8-1.53-23.53-7.72-28.86-19.35C1294.72,1573.42,1280.76,1588.28,1280.76,1588.28z"/>
		<path class="st33" d="M1235.01,1588.28c0,0-1.68,25.28,3.1,25.64c0.63,0.05,24.22,0.05,24.22,0.05l30.42,0
			c0,0-0.51-7.43-9.31-8.96c-8.8-1.53-23.53-7.72-28.86-19.35C1248.97,1573.42,1235.01,1588.28,1235.01,1588.28z"/>
		<path class="st26" d="M1279.32,1527.34c-0.75,10.69-2.27,24.44-1.73,36.83c0.76,17.33,1.31,31.94,1.31,31.94
			c11.42,3.89,32.39-0.83,32.39-0.83s7.44-43.79,13.56-78.75c2.75-15.66,5.03-29.21,5.88-35.61c2.76-20.68-2.93-130.65-2.93-130.65
			s-30.91-19.81-43.69-9.6c-12.77,10.21-20.63,20.2-0.05,132.09C1285.62,1481.25,1281,1503.39,1279.32,1527.34z"/>
		<path class="st8" d="M1279.32,1527.34c-0.75,10.69-2.13,27.8-1.58,40.2c10.75-11.37,31.93-35.37,47.11-51
			c2.75-15.66,5.03-29.21,5.88-35.61c2.76-20.68-2.93-130.65-2.93-130.65s-30.91-19.81-43.69-9.6
			c-12.77,10.21-20.63,20.2-0.05,132.09C1285.62,1481.25,1281,1503.39,1279.32,1527.34z"/>
		<path class="st26" d="M1299.86,1352.51c0,0-2.78,110.08-7.11,130.49c-4.34,20.41-26.98,113.84-26.98,113.84
			s-21.22,1.93-32.31-2.82c0,0,0.71-43.27,4.47-68.69c3.52-23.75,9.82-45.46,8.92-54.05c-11.92-113.14-3.31-122.49,10.2-131.7
			C1270.56,1330.38,1299.86,1352.51,1299.86,1352.51z"/>
		<path class="st17" d="M1257.9,1362.15c0,0,7.35,14.76-6.78,26.03c0,0-6.13,4.19-7.07-1.26c-0.94-5.45,0.14-3.55-1.33-11.19
			s0.41-15.54,4.81-18.98L1257.9,1362.15z"/>
		<path class="st17" d="M1319.89,1182.11c0,0-8.49,12.9-6.8,24.94l-12.56,30.26l-22.66-34.64c0,0,11.97-13.03,16.44-30.79
			L1319.89,1182.11z"/>
		<path class="st17" d="M1323.61,1193.12c0,0-30.91,1.34-31.47-17.22c-0.56-18.55-8.92-30.9,14.2-32.53
			c19.01-1.34,25.33,6.59,27.02,12.73S1335.07,1192.12,1323.61,1193.12z"/>
		<path class="st12" d="M1247.94,1357.82c6.64,0.62,15.78,1.38,26.87,2.08c2.22,0.14,4.51,0.28,6.87,0.41
			c33.49,1.88,46.8-3.55,46.8-3.55s0.89-0.72,0.61-4.65c-1.46-20.25-5.76-26.24-5.24-30.09c1.17-8.65,22.15-79.24,22.15-79.24
			s0.4-22.3-24.4-32.77c-2.56-1.08-5.38-2.03-8.49-2.82c-1.09,2.89-4.06,7.71-11.68,6.82c-11.26-1.31-19.27-7.95-22.71-11.35
			c-0.62,0-0.87,0.02-0.87,0.02c-0.84,2.37-1.49,4.84-2.08,7.36c-2.03,8.76-3.22,17.99-8.6,24.88c-5.31,6.81-9.85,13.52-13.73,20.08
			c-3.23,5.46-5.99,10.83-8.36,16.05C1223.15,1319.57,1240.13,1357.08,1247.94,1357.82z"/>
		<path class="st10" d="M1247.94,1357.82c6.64,0.62,15.78,1.38,26.87,2.08c3.23-54.51-18.98-106.87-18.98-106.87
			c-0.84,0.59-1.63,1.25-2.38,1.97c-3.87,3.76-6.56,9.34-8.36,16.05C1238.49,1295.77,1244.02,1335.92,1247.94,1357.82z"/>
		<path class="st26" d="M1333.57,1175.42c0,0,6.02,23.87-4.19,27.23c-10.21,3.36-37.32,0.67-37.31-28.6c0,0,14.23,8.48,21.02,8.27
			s11.18-4.14,17.46-1.07C1330.55,1181.25,1332.85,1181.1,1333.57,1175.42z"/>
		<path class="st12" d="M1277.87,1202.67c0,0-21.6,0.49-33.02,15.34c-8.75,11.38-17.99,72.45-17.99,81.64s9.85,59.94,15.36,65.45
			c0,0,3.57,0.92,8.33,0c5.05-0.98,8.03-3.9,8.03-3.9s-2.74-56.5-2.74-61.79c0-7.67,23.99-54.63,23.99-54.63
			S1292.27,1222.42,1277.87,1202.67z"/>
		<path class="st26" d="M1293.59,1149.15c0.52-1.89,2.85-2.89,2.85-2.89c17.41-7.58,30.13,0.71,30.13,0.71
			c-10.67-14.32-36.42-11.32-41.84,1.6c-8.86,21.09,7.34,25.48,7.34,25.48s16.18-6.8,6.81-15.32c-3.1-2.82-4.6-5.33-5.1-7.52l0,0
			l0,0C1293.61,1150.49,1293.56,1149.8,1293.59,1149.15z"/>
	</g>
	<g>
		<polygon class="st17" points="614.48,1555.16 610.71,1571.03 605.7,1592.09 590.04,1592.09 589.11,1571.92 588.39,1556.36 		"/>
		<path class="st10" d="M664.08,1209.52c0,0,12.38-13.25,20.44-2.86c8.05,10.39,16.98,17.41,29.34,25.4
			c12.36,7.99-10.92,70.64-26.4,69.35S608.82,1250.73,664.08,1209.52z"/>
		<path class="st21" d="M602.41,1203.21c3.09-2.31,31.56-12.08,59.31-2.47c27.75,9.61-21.5,36.39-21.5,36.39l-15.96,0.69
			L602.41,1203.21z"/>
		<path class="st17" d="M620.53,1185.11c0,0-0.55,17.06-2.74,24.71l-17.29,37.26l65.07-15.46l-15.52-21.44
			c0,0-4.69-22.88-2.23-31.34C650.29,1170.37,620.53,1185.11,620.53,1185.11z"/>
		<path class="st34" d="M620.43,1187.47c0,0,5.15,12.39,14.84,12.11c9.69-0.27,11.9-11.23,11.9-11.23L620.43,1187.47z"/>
		<path class="st35" d="M614.65,1177.44c0,0-3.13-15.62-5.31-20.36c-2.18-4.73-4-25.85,20.2-26.94c0,0,9.28,1.09,14.38-2
			c0,0,0,3.09-1.27,4.19c0,0,8.37-2,14.92,5.28c6.55,7.28-4.37,32.76-3.82,38.77L614.65,1177.44z"/>
		<path class="st17" d="M634.16,1194.8c-7.02-0.12-19.95-9.47-19.95-21.06v-18.07c0-4.23,2.95-7.69,6.55-7.69h26.79
			c3.6,0,6.55,3.46,6.55,7.69v17.05C654.11,1184.86,642.22,1194.94,634.16,1194.8z"/>
		<path class="st35" d="M614.21,1165.32c0,0,0.04-10.86,8.64-12.53c8.6-1.67,27.85,5.29,30.58-2.62c2.73-7.92-37.2-7.78-39.22-2.73
			C612.2,1152.49,614.21,1165.32,614.21,1165.32z"/>
		<path class="st26" d="M683.61,1349.7l-38.09,2.38c-0.22-0.36-0.46-0.36-0.74,0.05l-11.21,0.7l-47.76-2.98
			c0,0-12.01,54.83-7.29,127.9c1.51,23.31,3.9,54.43,4.38,76.73h35.43c4.24-27.61,10.15-56.14,12.79-67.97
			c1.2-5.37,2.31-10.7,3.35-15.97c0.95,6,1.55,10.87,1.54,13.91c-0.02,4.86,1.4,12.58,3.36,21.9c2.75,13.12,6.59,29.38,9.01,45.17
			h35.94c0.41-21.75,4.95-51.43,5.34-73.77C690.7,1418.16,683.61,1349.7,683.61,1349.7z"/>
		<path class="st8" d="M581.01,1377.95c0,0,13.64,16.53,50.72,14.15c37.07-2.39,54.76-8.84,54.76-8.84L581.01,1377.95z"/>
		<path class="st20" d="M686.49,1383.25c-12.11,1.65-94.49,5.93-105.48-5.31c-10.98-11.24,17.93-164.53,17.93-164.53
			s3.27-0.95,8.8-1.99c2.82-0.53,6.21-1.08,10.06-1.54c0.05,1.19,1,19.27,16,26.73c0,0,18.02-7.22,16.25-26.44
			c-0.02-0.23-0.05-0.44-0.08-0.66c2.4,0.26,4.84,0.59,7.29,1.01c4.94,0.85,9.95,2.05,14.91,3.69
			C672.18,1214.22,698.6,1381.61,686.49,1383.25z"/>
		<path class="st20" d="M581.71,1304.11c-0.49,0.64,2.8,5.35,7.43,11.42c9.53,12.46,24.78,30.59,24.78,30.59
			c-0.2,6.15-1.06,10.11-1.06,10.11c-20.94-9.9-35.11-19.15-44.49-26.59c-13.2-10.46-16.98-17.32-16.98-17.32
			c21.16-89.52,48.31-98.84,48.31-98.84l8.86,53.94C608.55,1267.44,583.19,1302.17,581.71,1304.11z"/>
		<path class="st23" d="M657.27,1210.53l-5.46,16.6l-7.27,10.68l-10.44,5.66l-9.83-5.66l-16.52-26.39
			c2.82-0.53,6.21-1.08,10.06-1.54c0.05,1.19,1,19.27,16,26.73c0,0,18.02-7.22,16.25-26.44c-0.02-0.23-0.05-0.44-0.08-0.66
			C652.39,1209.77,654.82,1210.11,657.27,1210.53z"/>
		<path class="st17" d="M613.92,1346.13c0,0.17-0.01,0.34-0.02,0.51c-0.05,1.13-0.11,2.19-0.2,3.16c-0.52,0.73-1.11,1.41-1.74,2.05
			c-0.96,0.97-2,1.79-3.06,2.48c-0.53-0.25-1.06-0.51-1.58-0.77c-17.94-8.88-30.42-17.15-38.96-23.91
			c5.42-1.67,13.01-5.48,20.78-14.12C598.67,1327.99,613.92,1346.13,613.92,1346.13z"/>
		<path class="st20" d="M717.93,1309.04c0,0-3.65,6.93-16.65,17.64c-9.24,7.61-23.23,17.14-43.98,27.43c0,0-0.93-3.95-1.26-10.09
			c0,0,14.9-18.42,24.19-31.06c4.52-6.15,7.71-10.93,7.21-11.56c-1.18-1.48-17.08-22.39-24.17-31.72c-2.06-2.71-3.37-4.44-3.37-4.44
			l8.98-53.04C668.89,1212.21,695.06,1219.94,717.93,1309.04z"/>
		<path class="st17" d="M701.28,1326.68c-8.43,6.94-20.81,15.48-38.67,24.75c-0.44,0.23-0.89,0.46-1.34,0.69
			c-2.28-2.75-3.67-6.04-4.51-8.96c0.3-0.37,0.69-0.86,1.16-1.44c4.28-5.34,15.03-18.83,22.33-28.75
			C688.17,1321.45,695.84,1325.11,701.28,1326.68z"/>
		<path class="st17" d="M649.98,1209.52c-12.02-1.29-23.29-0.7-32.18,0.37c-0.01-0.04-0.01-0.06-0.01-0.06
			S647.58,1191.4,649.98,1209.52z"/>
		<g>
			<g>
				<polygon class="st36" points="620.11,1261.62 619.5,1261.62 619.05,1232.91 620.59,1232.91 				"/>
			</g>
			<path class="st23" d="M619.43,1260.87c-0.56,0.84-1.81,3.62-0.98,3.91c0.83,0.29,2.29,0.31,2.68-0.08
				C621.53,1264.31,620.49,1259.29,619.43,1260.87z"/>
		</g>
		<g>
			<g>
				<polygon class="st36" points="648.3,1261.62 647.69,1261.62 647.24,1232.91 648.79,1232.91 				"/>
			</g>
			<path class="st23" d="M647.63,1260.87c-0.56,0.84-1.81,3.62-0.98,3.91c0.83,0.29,2.29,0.31,2.68-0.08
				C649.72,1264.31,648.68,1259.29,647.63,1260.87z"/>
		</g>
		<path class="st21" d="M624.26,1237.81l-25.32-24.4c0,0-5.7-4.05,3.31-10.1C611.26,1197.27,624.26,1237.81,624.26,1237.81z"/>
		<path class="st21" d="M644.53,1237.81l25.32-24.4c0,0,5.7-4.05-3.31-10.1C657.53,1197.27,644.53,1237.81,644.53,1237.81z"/>
		<g>
			<path class="st21" d="M676.31,1354.45c-4.93,0.42-9.05-0.82-12.22-3.66c-0.54-0.48-1.02-0.99-1.48-1.52
				c-2.5-2.92-3.91-6.61-4.7-9.71c-0.91-3.55-1-6.34-1-6.4l-0.02-0.71h-40.9l0.03,0.76c0.16,4.4-0.55,8.17-2.12,11.28
				c-0.78,1.55-1.77,2.94-2.98,4.16c-1.11,1.12-2.34,2.03-3.6,2.76c-5.47,3.17-11.56,3.05-11.64,3.05l-0.76-0.03v17.28h82.19v-17.32
				L676.31,1354.45z"/>
		</g>
		<path class="st21" d="M687.45,1301.4c0,0-22.8-29.91-4.75-38.62c7.16-3.46,17.25,37.59,11.84,41.46
			c-5.41,3.86-14.3,8.73-14.3,8.73L687.45,1301.4z"/>
		<path class="st21" d="M584.33,1294.32c0,0,7.92-37.56,0.97-33.69c-6.95,3.87-17.25,37.59-11.84,41.45
			c5.41,3.86,14.3,8.73,14.3,8.73L584.33,1294.32z"/>
		<g>
			<path class="st10" d="M684.26,1301.32c-10.41-12.92-14.3-33.91-13.77-55.57c0.4-16.26,2.63-30.94,2.77-31.45l8.54,6.65
				c-0.03,0.12-4.9,9.02-5.28,24.84c-0.34,14.47-1.03,25.49,7.15,50.68L684.26,1301.32z"/>
		</g>
		<path class="st8" d="M605.21,1562.46l-18.34-0.01c-1.62,0.18-4.16-2.19-4.16-5.59c0,0-0.04-8.15-0.58-9.6
			c-2.36-6.35,1.15-6.69,4.55-6.69h33.47c3.4,0-1.81,10.5-1.81,13.9l1.21,4.46C619.54,1562.32,608.61,1562.46,605.21,1562.46z"/>
		<path class="st8" d="M605.69,1592.09L605.69,1592.09l5.01-21.06c-11.41,3.93-19.26,1.74-21.59,0.88l0.93,20.17h0
			c0,0-4,10.37-5.1,12.92c-1.09,2.55-1.09,10.21-1.09,10.21h24.94c0,0,0.18-7.48,0-10.58
			C608.61,1601.56,605.7,1592.1,605.69,1592.09z"/>
		<polygon class="st17" points="652.64,1555.16 656.42,1571.04 661.43,1592.09 677.08,1592.09 678.01,1571.92 678.73,1556.36 		"/>
		<path class="st8" d="M661.91,1562.46l18.34-0.01c1.62,0.18,4.16-2.19,4.16-5.59c0,0,0.04-8.15,0.58-9.6
			c2.36-6.35-1.15-6.69-4.55-6.69h-33.47c-3.4,0,1.81,10.5,1.81,13.9l-1.21,4.46C647.58,1562.32,658.51,1562.46,661.91,1562.46z"/>
		<path class="st8" d="M682.15,1605.02c-1.09-2.55-5.09-12.92-5.1-12.92h0.03l0.93-20.17c-2.33,0.86-10.18,3.04-21.59-0.88
			l5.01,21.06h-0.03c0,0-2.91,9.46-3.09,12.56c-0.18,3.09,0,10.58,0,10.58h24.94C683.24,1615.23,683.24,1607.56,682.15,1605.02z"/>
	</g>
	<g>
		<g>
			<polygon class="st3" points="356,1615.27 332.97,1615.27 342.09,1095.8 343.45,1017.89 354.36,1017.89 354.56,1087.98 			"/>
			<path class="st37" d="M354.56,1087.98c-3.65,1.81-7.99,4.36-12.47,7.82l1.37-77.91h10.91L354.56,1087.98z"/>
		</g>
		<g>
			<path class="st12" d="M405.72,1029.97H283.25c-3.85,0-7-3.15-7-7V850.34c0-3.85,3.15-7,7-7h122.47c3.85,0,7,3.15,7,7v172.63
				C412.72,1026.82,409.57,1029.97,405.72,1029.97z"/>
			<path class="st0" d="M398.5,1021.25H290.47c-3.45,0-6.27-2.82-6.27-6.27V857.94c0-3.45,2.82-6.27,6.27-6.27H398.5
				c3.45,0,6.27,2.82,6.27,6.27v157.03C404.77,1018.42,401.95,1021.25,398.5,1021.25z"/>
			<g>
				<path class="st10" d="M315.51,909.85c-5.89-0.97-10.91,4.05-9.94,9.94c0.58,3.57,3.46,6.44,7.03,7.03
					c5.89,0.97,10.91-4.05,9.94-9.94C321.95,913.31,319.07,910.44,315.51,909.85z M314.05,922.17c-2.12,0-3.83-1.71-3.83-3.83
					c0-2.12,1.71-3.83,3.83-3.83c2.12,0,3.83,1.71,3.83,3.83C317.88,920.45,316.17,922.17,314.05,922.17z"/>
				<path class="st10" d="M373.27,909.85c-5.89-0.98-10.93,4.04-9.96,9.94c0.59,3.57,3.46,6.44,7.03,7.03
					c5.89,0.96,10.9-4.05,9.94-9.93C379.71,913.32,376.84,910.44,373.27,909.85z M372.41,922.12c-2.59,0.4-4.8-1.81-4.39-4.4
					c0.25-1.61,1.58-2.93,3.19-3.17c2.59-0.39,4.77,1.81,4.38,4.39C375.34,920.55,374.02,921.87,372.41,922.12z"/>
				<path class="st10" d="M383.68,880.57h-74.56c-1.82,0-3.51,0.91-4.52,2.42l-8.01,12.07c-0.71,1.07-1.09,2.33-1.09,3.62v15.18
					c0,2.47,2,4.47,4.47,4.47l0,0c1.69,0,3.11-1.17,3.54-2.8c1.23-4.66,5.48-8.1,10.54-8.1c4.93,0,9.1,3.27,10.44,7.77
					c0.56,1.87,2.29,3.13,4.24,3.13h28.99c1.69,0,3.11-1.17,3.54-2.8c1.23-4.66,5.48-8.1,10.53-8.1c4.97,0,9.16,3.33,10.47,7.88
					c0.52,1.81,2.22,3.02,4.1,3.02h3.2c2.15,0,3.89-1.74,3.89-3.89v-16.71c0-0.79-0.14-1.57-0.41-2.31l-4.16-11.23
					C388.09,882.02,386.01,880.57,383.68,880.57z M316.33,894.13c0,1.28-1.03,2.31-2.31,2.31h-9.71c-1.5,0-2.45-1.62-1.7-2.93
					l4.35-7.63c0.87-1.52,2.48-2.46,4.23-2.46h2.82c1.28,0,2.31,1.04,2.31,2.31V894.13z M338.38,894.13c0,1.28-1.04,2.31-2.31,2.31
					h-13.34c-1.28,0-2.31-1.03-2.31-2.31v-8.4c0-1.28,1.03-2.31,2.31-2.31h13.34c1.28,0,2.31,1.04,2.31,2.31V894.13z M360.47,894.13
					c0,1.28-1.03,2.31-2.31,2.31h-13.35c-1.28,0-2.31-1.03-2.31-2.31v-8.4c0-1.28,1.03-2.31,2.31-2.31h13.35
					c1.28,0,2.31,1.04,2.31,2.31V894.13z M382.7,894.13c0,1.28-1.03,2.31-2.31,2.31h-13.34c-1.28,0-2.31-1.03-2.31-2.31v-8.4
					c0-1.28,1.03-2.31,2.31-2.31h13.34c1.28,0,2.31,1.04,2.31,2.31V894.13z"/>
			</g>
			<g>
				<path class="st10" d="M318.51,947.32h8.63c2.12,0,3.8,0.58,4.86,1.65c0.85,0.85,1.27,1.89,1.27,3.21c0,2.1-1.12,3.27-2.44,4.01
					c2.15,0.82,3.48,2.07,3.48,4.62c0,3.4-2.76,5.1-6.96,5.1h-8.85V947.32z M326.26,954.84c1.81,0,2.95-0.59,2.95-2.02
					c0-1.22-0.96-1.91-2.68-1.91h-4.04v3.93H326.26z M327.35,962.33c1.81,0,2.9-0.64,2.9-2.07c0-1.25-0.93-2.02-3.03-2.02h-4.73
					v4.09H327.35z"/>
				<path class="st10" d="M337.39,957.95v-10.62h4.09v10.52c0,3.03,1.51,4.6,4.01,4.6c2.5,0,4.01-1.51,4.01-4.46v-10.65h4.09v10.49
					c0,5.63-3.16,8.39-8.15,8.39C340.45,966.21,337.39,963.42,337.39,957.95z"/>
				<path class="st10" d="M356.49,963.21l2.42-2.9c1.67,1.38,3.43,2.26,5.55,2.26c1.67,0,2.68-0.66,2.68-1.81
					c0-1.04-0.64-1.57-3.75-2.36c-3.75-0.96-6.16-1.99-6.16-5.74c0-3.37,2.71-5.6,6.51-5.6c2.71,0,5.02,0.85,6.91,2.36l-2.12,3.08
					c-1.65-1.14-3.27-1.83-4.83-1.83c-1.57,0-2.39,0.72-2.39,1.67c0,1.22,0.8,1.62,4.01,2.44c3.77,0.98,5.9,2.34,5.9,5.63
					c0,3.69-2.82,5.76-6.83,5.76C361.56,966.18,358.72,965.2,356.49,963.21z"/>
				<path class="st10" d="M308.69,995.08l2.42-2.9c1.67,1.38,3.43,2.26,5.55,2.26c1.67,0,2.68-0.66,2.68-1.81
					c0-1.04-0.64-1.57-3.75-2.36c-3.75-0.96-6.16-1.99-6.16-5.74c0-3.37,2.71-5.6,6.51-5.6c2.71,0,5.02,0.85,6.91,2.36l-2.12,3.08
					c-1.65-1.14-3.27-1.83-4.83-1.83c-1.57,0-2.39,0.72-2.39,1.67c0,1.22,0.8,1.62,4.01,2.44c3.77,0.98,5.9,2.34,5.9,5.63
					c0,3.69-2.82,5.76-6.83,5.76C313.77,998.06,310.92,997.08,308.69,995.08z"/>
				<path class="st10" d="M330.9,982.97h-5.66v-3.77h15.41v3.77h-5.66v14.82h-4.09V982.97z"/>
				<path class="st10" d="M342.16,988.5c0-5.29,4.17-9.62,9.91-9.62s9.85,4.28,9.85,9.62c0,5.29-4.17,9.62-9.91,9.62
					C346.28,998.11,342.16,993.83,342.16,988.5z M357.65,988.5c0-3.19-2.34-5.84-5.63-5.84c-3.29,0-5.58,2.6-5.58,5.84
					c0,3.19,2.34,5.84,5.63,5.84C355.36,994.34,357.65,991.74,357.65,988.5z"/>
				<path class="st10" d="M365.56,979.2h7.6c4.44,0,7.12,2.63,7.12,6.48c0,4.3-3.35,6.53-7.52,6.53h-3.11v5.58h-4.09V979.2z
					 M372.89,988.58c2.05,0,3.24-1.22,3.24-2.87c0-1.83-1.27-2.82-3.32-2.82h-3.16v5.68H372.89z"/>
			</g>
		</g>
		<g>
			<path class="st3" d="M367.15,1613.97h-45.33l3.24-62.79c0.18-3.5,3.07-6.25,6.58-6.25h25.28c3.74,0,6.82,2.93,7.01,6.66
				L367.15,1613.97z"/>
			<path class="st37" d="M342.73,1613.97h-20.91l3.27-63.31c0.17-3.21,2.82-5.73,6.04-5.73h6.52c5.32,0,9.52,4.5,9.16,9.81
				L342.73,1613.97z"/>
		</g>
	</g>
	<g>
		<path class="st3" d="M533.12,963.58l-0.33,20.84l-9.94,626.82c-0.02,1.51-1.25,2.72-2.76,2.72h-0.74c-2.98,0-5.41-2.38-5.48-5.35
			l-13.77-605.05l-0.91-39.98H533.12z"/>
		<path class="st4" d="M533.12,963.58l-0.33,20.84c-9.08,2.84-22.07,8.45-32.68,19.13l-0.91-39.98H533.12z"/>
	</g>
	<g>
		<path class="st3" d="M1466.21,963.58l-0.33,20.84l-9.94,626.82c-0.02,1.51-1.25,2.72-2.76,2.72h-0.74c-2.98,0-5.41-2.38-5.48-5.35
			l-13.77-605.05l-0.91-39.98H1466.21z"/>
		<path class="st4" d="M1466.21,963.58l-0.33,20.84c-9.08,2.84-22.07,8.45-32.68,19.13l-0.91-39.98H1466.21z"/>
	</g>
	<g>
		<path class="st10" d="M1511.2,885.24v73.85c0,1.4-0.39,2.73-1.07,3.87c-1.49,2.5-4.37,4.2-7.66,4.2H469.24
			c-4.8,0-8.72-3.64-8.72-8.07v-73.85c0-4.44,3.92-8.07,8.72-8.07h1033.24C1507.28,877.17,1511.2,880.8,1511.2,885.24z"/>
		<path class="st12" d="M1511.2,885.24v73.85c0,1.4-0.39,2.73-1.07,3.87c-3.11,1.43-6.27,2.83-9.49,4.2h-436.29
			c-106.94-26.05-213.43-61.33-291.59-90h729.71C1507.28,877.17,1511.2,880.8,1511.2,885.24z"/>
	</g>
	<path class="st1" d="M493.5,1571.03c0,0-29.08-44.42-47.04-35.91C428.49,1543.64,493.5,1571.03,493.5,1571.03z"/>
	<path class="st1" d="M501.62,1562.46c0,0-1.71-32.08-11.12-30.8C481.09,1532.95,501.62,1562.46,501.62,1562.46z"/>
	<path class="st38" d="M3101.61,1619.16H116.97c-1.86,0-3.39-1.53-3.39-3.39v-1.16c0-1.87,1.53-3.39,3.39-3.39h2984.64
		c1.86,0,3.39,1.52,3.39,3.39v1.16C3105,1617.63,3103.47,1619.16,3101.61,1619.16z"/>
</g>
<rect class="st39" width="3200" height="2000"/>
</svg>
