<?xml version="1.0" encoding="utf-8"?>
<!-- Generator: Adobe Illustrator 25.0.0, SVG Export Plug-In . SVG Version: 6.00 Build 0)  -->
<svg version="1.1" xmlns="http://www.w3.org/2000/svg" xmlns:xlink="http://www.w3.org/1999/xlink" x="0px" y="0px"
	 viewBox="0 0 1000 700" style="enable-background:new 0 0 1000 700;" xml:space="preserve">
<style type="text/css">
	.st0{display:none;}
	.st1{display:inline;fill:#EFF0ED;}
	.st2{display:inline;opacity:0.18;}
	.st3{fill:#B5C3C2;}
	.st4{opacity:0.29;fill:#B5C3C2;}
	.st5{fill:#95A9A7;}
	.st6{fill:#658280;}
	.st7{opacity:0.29;fill:#658280;}
	.st8{opacity:0.52;}
	.st9{fill:#FFFFFF;}
	.st10{opacity:0.5;fill:#FFFFFF;}
	.st11{opacity:0.33;fill:#FFFFFF;}
	.st12{opacity:0.4;fill:#FFFFFF;}
</style>
<g id="Bg" class="st0">
	<rect transform="matrix(-1 -1.224647e-16 1.224647e-16 -1 1000 700)" class="st1" width="1000" height="700"/>
</g>
<g id="Shadow" class="st0">
	<g class="st2">
		<g>
			<g>
				<rect x="292.27" y="471.04" class="st3" width="40.4" height="77.59"/>
				<rect x="298.87" y="521.58" class="st3" width="27.2" height="32.6"/>
				<rect x="304.92" y="539.63" class="st3" width="15.09" height="18.08"/>
				<polygon class="st3" points="317.61,548.42 307.33,548.42 307.33,560.75 311.03,560.75 314.71,560.75 317.61,560.75 				"/>
				<g>
					<polygon class="st3" points="311.79,553.79 310.67,553.79 310.67,566.11 311.08,566.11 311.47,566.11 311.79,566.11 					"/>
					<polygon class="st3" points="314.26,558.05 313.14,558.05 313.14,570.37 313.54,570.37 313.94,570.37 314.26,570.37 					"/>
				</g>
				<rect x="291.19" y="548" class="st3" width="42.55" height="0.83"/>
				<rect x="297.87" y="553.79" class="st3" width="29.18" height="0.8"/>
				<rect x="303.82" y="557.44" class="st3" width="16.82" height="0.61"/>
				<rect x="301.37" y="549.45" class="st4" width="1.26" height="3.42"/>
				<rect x="304.87" y="549.45" class="st4" width="1.26" height="3.42"/>
				<rect x="308.36" y="549.45" class="st4" width="1.26" height="3.42"/>
				<rect x="311.86" y="549.45" class="st4" width="1.26" height="3.42"/>
				<rect x="315.36" y="549.45" class="st4" width="1.26" height="3.42"/>
				<rect x="318.86" y="549.45" class="st4" width="1.26" height="3.42"/>
				<rect x="322.36" y="549.45" class="st4" width="1.26" height="3.42"/>
				<rect x="295.81" y="541.48" class="st3" width="3.06" height="4.05"/>
				<rect x="301.86" y="541.48" class="st4" width="3.06" height="4.05"/>
				<rect x="307.91" y="541.48" class="st3" width="3.06" height="4.05"/>
				<rect x="313.96" y="541.48" class="st3" width="3.06" height="4.05"/>
				<rect x="320.01" y="541.48" class="st3" width="3.06" height="4.05"/>
				<rect x="326.06" y="541.48" class="st3" width="3.06" height="4.05"/>
				<rect x="295.81" y="535.16" class="st3" width="3.06" height="4.05"/>
				<rect x="301.86" y="535.16" class="st3" width="3.06" height="4.05"/>
				<rect x="307.91" y="535.16" class="st3" width="3.06" height="4.05"/>
				<rect x="313.96" y="535.16" class="st4" width="3.06" height="4.05"/>
				<rect x="320.01" y="535.16" class="st3" width="3.06" height="4.05"/>
				<rect x="326.06" y="535.16" class="st3" width="3.06" height="4.05"/>
				<rect x="295.81" y="528.84" class="st3" width="3.06" height="4.05"/>
				<rect x="301.86" y="528.84" class="st3" width="3.06" height="4.05"/>
				<rect x="307.91" y="528.84" class="st3" width="3.06" height="4.05"/>
				<rect x="313.96" y="528.84" class="st3" width="3.06" height="4.05"/>
				<rect x="320.01" y="528.84" class="st4" width="3.06" height="4.05"/>
				<rect x="326.06" y="528.84" class="st4" width="3.06" height="4.05"/>
				<rect x="295.81" y="522.52" class="st4" width="3.06" height="4.05"/>
				<rect x="301.86" y="522.52" class="st3" width="3.06" height="4.05"/>
				<rect x="307.91" y="522.52" class="st3" width="3.06" height="4.05"/>
				<rect x="313.96" y="522.52" class="st3" width="3.06" height="4.05"/>
				<rect x="320.01" y="522.52" class="st3" width="3.06" height="4.05"/>
				<rect x="326.06" y="522.52" class="st3" width="3.06" height="4.05"/>
				<rect x="295.81" y="516.21" class="st3" width="3.06" height="4.05"/>
				<rect x="301.86" y="516.21" class="st4" width="3.06" height="4.05"/>
				<rect x="307.91" y="516.21" class="st3" width="3.06" height="4.05"/>
				<rect x="313.96" y="516.21" class="st4" width="3.06" height="4.05"/>
				<rect x="320.01" y="516.21" class="st3" width="3.06" height="4.05"/>
				<rect x="326.06" y="516.21" class="st3" width="3.06" height="4.05"/>
				<rect x="295.81" y="509.89" class="st3" width="3.06" height="4.05"/>
				<rect x="301.86" y="509.89" class="st3" width="3.06" height="4.05"/>
				<rect x="307.91" y="509.89" class="st3" width="3.06" height="4.05"/>
				<rect x="313.96" y="509.89" class="st3" width="3.06" height="4.05"/>
				<rect x="320.01" y="509.89" class="st3" width="3.06" height="4.05"/>
				<rect x="326.06" y="509.89" class="st4" width="3.06" height="4.05"/>
				<rect x="295.81" y="503.57" class="st3" width="3.06" height="4.05"/>
				<rect x="301.86" y="503.57" class="st4" width="3.06" height="4.05"/>
				<rect x="307.91" y="503.57" class="st4" width="3.06" height="4.05"/>
				<rect x="313.96" y="503.57" class="st3" width="3.06" height="4.05"/>
				<rect x="320.01" y="503.57" class="st3" width="3.06" height="4.05"/>
				<rect x="326.06" y="503.57" class="st3" width="3.06" height="4.05"/>
				<rect x="295.81" y="497.25" class="st3" width="3.06" height="4.05"/>
				<rect x="301.86" y="497.25" class="st3" width="3.06" height="4.05"/>
				<rect x="307.91" y="497.25" class="st3" width="3.06" height="4.05"/>
				<rect x="313.96" y="497.25" class="st3" width="3.06" height="4.05"/>
				<rect x="320.01" y="497.25" class="st4" width="3.06" height="4.05"/>
				<rect x="326.06" y="497.25" class="st3" width="3.06" height="4.05"/>
				<rect x="295.81" y="490.93" class="st3" width="3.06" height="4.05"/>
				<rect x="301.86" y="490.93" class="st4" width="3.06" height="4.05"/>
				<rect x="307.91" y="490.93" class="st3" width="3.06" height="4.05"/>
				<rect x="313.96" y="490.93" class="st3" width="3.06" height="4.05"/>
				<rect x="320.01" y="490.93" class="st3" width="3.06" height="4.05"/>
				<rect x="326.06" y="490.93" class="st3" width="3.06" height="4.05"/>
				<rect x="295.81" y="484.62" class="st3" width="3.06" height="4.05"/>
				<rect x="301.86" y="484.62" class="st3" width="3.06" height="4.05"/>
				<rect x="307.91" y="484.62" class="st3" width="3.06" height="4.05"/>
				<rect x="313.96" y="484.62" class="st4" width="3.06" height="4.05"/>
				<rect x="320.01" y="484.62" class="st3" width="3.06" height="4.05"/>
				<rect x="326.06" y="484.62" class="st4" width="3.06" height="4.05"/>
				<rect x="295.81" y="478.3" class="st4" width="3.06" height="4.05"/>
				<rect x="301.86" y="478.3" class="st3" width="3.06" height="4.05"/>
				<rect x="307.91" y="478.3" class="st4" width="3.06" height="4.05"/>
				<rect x="313.96" y="478.3" class="st3" width="3.06" height="4.05"/>
				<rect x="320.01" y="478.3" class="st3" width="3.06" height="4.05"/>
				<rect x="326.06" y="478.3" class="st3" width="3.06" height="4.05"/>
			</g>
			<g>
				<rect x="174.94" y="480.31" class="st3" width="64.94" height="65.36"/>
				<rect x="173.09" y="544.95" class="st3" width="68.63" height="1.85"/>
				<rect x="177.12" y="540.38" class="st3" width="60.58" height="8.78"/>
				<rect x="181.76" y="543.16" class="st3" width="23.99" height="9.59"/>
				<polygon class="st3" points="195.64,550.05 181.76,550.05 181.76,555.1 191.71,555.1 				"/>
				<rect x="187.35" y="548.04" class="st3" width="1.35" height="11.25"/>
				<ellipse class="st3" cx="188.02" cy="559.88" rx="1.21" ry="0.58"/>
			</g>
			<polygon class="st3" points="777.67,475.34 706.58,475.34 697.71,571.43 777.67,563.43 			"/>
			<polygon class="st3" points="467.52,530.22 467.52,562.34 456.37,562.34 456.37,570.95 452.39,570.95 452.39,583.57 
				430.44,583.57 430.44,592.85 428.49,592.85 428.49,583.57 424.19,583.57 424.19,595.18 422.24,595.18 422.24,583.57 
				408.37,583.57 408.37,562.34 401.2,562.34 401.2,530.22 395.06,530.22 395.06,471.7 471.84,471.7 471.84,530.22 			"/>
		</g>
		<rect x="84.17" y="466.78" class="st3" width="849.37" height="9.75"/>
		<polygon class="st5" points="584.14,469.17 546.53,469.17 561.18,505.51 584.14,505.51 		"/>
		<g>
			<rect x="53.7" y="452.39" class="st5" width="891.8" height="15.37"/>
			<polygon class="st5" points="553.32,536.41 553.32,552.52 541.24,552.52 541.24,558.65 534.78,558.65 534.78,563.8 532.51,563.8 
				532.51,572.63 531.93,572.63 531.93,563.8 529.66,563.8 529.66,558.65 523.2,558.65 523.2,552.52 511.21,552.52 511.21,536.41 
				508.72,536.41 508.72,507.18 490.14,507.18 490.14,473.85 508.72,473.85 527.3,473.85 555.72,473.85 555.72,536.41 			"/>
			<polygon class="st5" points="622.72,517.92 564.27,517.92 564.27,517.41 566.91,517.41 566.91,469.72 620.08,469.72 
				620.08,517.41 622.72,517.41 			"/>
			<rect x="304.35" y="466.31" class="st5" width="51.83" height="39.73"/>
			<rect x="207.41" y="466.31" class="st5" width="89.13" height="19.37"/>
			<rect x="255.18" y="481.39" class="st5" width="19.57" height="47.57"/>
			<rect x="259.5" y="515.79" class="st5" width="1.02" height="25.87"/>
			<rect x="262.81" y="513.83" class="st5" width="1.02" height="25.87"/>
			<rect x="256.69" y="525.53" class="st5" width="11.96" height="6.38"/>
			<rect x="293.05" y="466.31" class="st5" width="34.05" height="32.61"/>
			<rect x="364.57" y="466.31" class="st5" width="63.92" height="67.13"/>
			<rect x="370.85" y="524.57" class="st5" width="51.36" height="11.18"/>
			<rect x="359.62" y="531.25" class="st5" width="73.83" height="0.78"/>
			<rect x="352.99" y="466.31" class="st5" width="30.12" height="33.9"/>
			<rect x="137.27" y="466.31" class="st5" width="34.56" height="35.19"/>
			<g>
				<rect x="148.45" y="466.31" class="st5" width="68.87" height="44.75"/>
				<rect x="144.43" y="511.07" class="st5" width="74.66" height="1.72"/>
				<rect x="151.5" y="508.37" class="st5" width="30.26" height="9.07"/>
				<rect x="191.65" y="511.92" class="st5" width="5.08" height="5.52"/>
				<rect x="201.82" y="511.92" class="st5" width="5.59" height="5.52"/>
			</g>
			<rect x="118.47" y="466.31" class="st5" width="36.09" height="13.61"/>
			<rect x="104.84" y="466.31" class="st5" width="17.09" height="19.37"/>
			<rect x="84.17" y="466.31" class="st5" width="29.2" height="6.8"/>
			<rect x="422.21" y="466.31" class="st5" width="359.85" height="15.08"/>
			<path class="st5" d="M757.65,521.05c0-1.15-1.94-2.09-4.32-2.09c-2.35,0-4.26,0.9-4.32,2.03l-5.07,0.08
				c-0.26-3.41-1.88-6.7-4.74-9.72l4.65-1.04c0.62,0.79,2.2,1.35,4.05,1.35c2.39,0,4.32-0.93,4.32-2.09s-1.94-2.09-4.32-2.09
				s-4.32,0.93-4.32,2.09c0,0.18,0.05,0.35,0.13,0.51l-4.71,1.05c-2.6-2.68-6.17-5.14-10.62-7.29c-0.35-0.17-0.71-0.34-1.07-0.5
				l4.26-2.19c0.7,0.23,1.55,0.37,2.46,0.37c2.39,0,4.32-0.93,4.32-2.09c0-1.15-1.94-2.09-4.32-2.09c-2.39,0-4.32,0.93-4.32,2.09
				c0,0.63,0.57,1.19,1.48,1.57l-4.23,2.18c-3-1.35-6.26-2.51-9.74-3.47l26.07-23.19h4.68v-0.66h2.29v-1.32H631.12v1.32h2.29v0.66
				h4.68l26.07,23.19c-4.03,1.12-7.78,2.5-11.16,4.13c-0.35,0.17-0.7,0.34-1.04,0.52l-3.31-1.5c0.63-0.36,1.01-0.83,1.01-1.34
				c0-1.15-1.94-2.09-4.32-2.09s-4.32,0.93-4.32,2.09c0,1.15,1.94,2.09,4.32,2.09c1.16,0,2.21-0.22,2.99-0.58l3.31,1.5
				c-4.81,2.5-8.49,5.38-10.9,8.5l-4.23-0.75c0.12-0.19,0.19-0.4,0.19-0.61c0-1.15-1.94-2.09-4.32-2.09s-4.32,0.93-4.32,2.09
				c0,1.15,1.94,2.09,4.32,2.09c1.78,0,3.3-0.52,3.97-1.26l4.23,0.75c-2.09,2.78-3.17,5.74-3.17,8.78c0,0.24,0.01,0.48,0.02,0.72
				l-5.15,0.08c-0.18-1.07-2.04-1.91-4.31-1.91c-2.39,0-4.32,0.93-4.32,2.09c0,1.15,1.94,2.09,4.32,2.09c2.35,0,4.26-0.9,4.32-2.03
				l5.15-0.08c0.26,3.41,1.88,6.7,4.74,9.72l-3.99,0.89c-0.69-0.71-2.18-1.21-3.92-1.21c-2.39,0-4.32,0.93-4.32,2.09
				s1.94,2.09,4.32,2.09c2.39,0,4.32-0.93,4.32-2.09c0-0.23-0.08-0.46-0.23-0.66l4.02-0.89c2.59,2.68,6.17,5.14,10.62,7.29
				c0.35,0.17,0.71,0.34,1.07,0.5l-3.15,1.62c-0.76-0.32-1.75-0.51-2.84-0.51c-2.39,0-4.32,0.93-4.32,2.09
				c0,1.15,1.94,2.09,4.32,2.09s4.32-0.93,4.32-2.09c0-0.54-0.43-1.04-1.14-1.41l3.16-1.63c5.36,2.41,11.58,4.22,18.31,5.38
				l-1.74,2.39c-0.38-0.05-0.78-0.08-1.19-0.08c-2.39,0-4.32,0.93-4.32,2.09c0,1.15,1.94,2.09,4.32,2.09s4.32-0.93,4.32-2.09
				c0-0.87-1.11-1.62-2.68-1.93l1.74-2.39c5.55,0.93,11.45,1.41,17.49,1.41c0.5,0,0.99,0,1.49-0.01l0.2,2.94
				c-2.1,0.14-3.71,1.01-3.71,2.07c0,1.15,1.94,2.09,4.32,2.09s4.32-0.93,4.32-2.09s-1.94-2.09-4.32-2.09c-0.05,0-0.09,0-0.14,0
				l-0.2-2.92c6.28-0.11,12.37-0.74,18.06-1.85l1.82,2.13c-1.51,0.33-2.57,1.06-2.57,1.91c0,1.15,1.94,2.09,4.32,2.09
				s4.32-0.93,4.32-2.09c0-1.15-1.94-2.09-4.32-2.09c-0.46,0-0.9,0.03-1.31,0.1l-1.82-2.14c6.35-1.28,12.19-3.15,17.2-5.57
				c0.35-0.17,0.7-0.34,1.04-0.52l3.31,1.5c-0.63,0.36-1.01,0.83-1.01,1.34c0,1.15,1.94,2.09,4.32,2.09s4.32-0.93,4.32-2.09
				c0-1.15-1.94-2.09-4.32-2.09c-1.16,0-2.21,0.22-2.99,0.58l-3.31-1.5c4.81-2.5,8.49-5.38,10.9-8.5l4.23,0.75
				c-0.12,0.19-0.19,0.4-0.19,0.61c0,1.15,1.94,2.09,4.32,2.09s4.32-0.93,4.32-2.09c0-1.15-1.94-2.09-4.32-2.09
				c-1.78,0-3.3,0.52-3.97,1.26l-4.23-0.75c2.09-2.78,3.17-5.74,3.17-8.78c0-0.24-0.01-0.48-0.02-0.72l5.06-0.08
				c0.18,1.07,2.04,1.91,4.31,1.91C755.72,523.14,757.65,522.21,757.65,521.05z M739.45,530.57l-14.03-2.49
				c1.42-1.89,2.19-3.92,2.19-6.05c0-0.15,0-0.31-0.01-0.46l14.92-0.23c0.01,0.23,0.02,0.46,0.02,0.7
				C742.54,524.99,741.48,527.87,739.45,530.57z M726.89,522.03c0,2.08-0.76,4.07-2.15,5.93l-31.25-5.55c0.06-0.1,0.09-0.2,0.1-0.3
				l33.28-0.52C726.89,521.73,726.89,521.88,726.89,522.03z M654.5,522.03c0-2.08,0.76-4.07,2.15-5.93l31.25,5.55
				c-0.06,0.1-0.09,0.2-0.1,0.3l-33.28,0.52C654.5,522.33,654.5,522.18,654.5,522.03z M693.33,522.62l31.25,5.55
				c-1.67,2.13-4.17,4.07-7.32,5.71l-24.28-10.98C693.11,522.81,693.23,522.72,693.33,522.62z M716.93,534.05
				c-3.43,1.74-7.6,3.15-12.26,4.09l-12.65-14.86c0.23-0.06,0.44-0.13,0.63-0.21L716.93,534.05z M704.22,538.23
				c-3.77,0.73-7.84,1.17-12.11,1.25l-1.08-16.06c0.19-0.01,0.37-0.03,0.54-0.06L704.22,538.23z M691.63,539.49
				c-0.31,0-0.62,0.01-0.94,0.01c-4.13,0-8.1-0.34-11.81-0.95l11.07-15.15c0.19,0.02,0.39,0.04,0.59,0.04L691.63,539.49z
				 M678.43,538.46c-4.6-0.8-8.78-2.04-12.3-3.62l22.76-11.72c0.19,0.07,0.39,0.13,0.62,0.18L678.43,538.46z M665.78,534.69
				c-3.24-1.49-5.92-3.26-7.85-5.23l30.23-6.73c0.11,0.09,0.23,0.17,0.37,0.25L665.78,534.69z M657.73,529.24
				c-1.89-2-3.02-4.21-3.2-6.53l33.28-0.52c0.03,0.11,0.08,0.22,0.16,0.32L657.73,529.24z M656.81,515.89
				c1.67-2.13,4.17-4.07,7.32-5.71l24.01,10.85l0.2,0.18c-0.11,0.07-0.2,0.15-0.28,0.23L656.81,515.89z M664.46,510.01
				c2.32-1.18,4.97-2.2,7.88-3.03l15.07,13.4L664.46,510.01z M673.17,506.75c1.15-0.31,2.33-0.59,3.55-0.83l12.65,14.86
				c-0.11,0.03-0.22,0.06-0.32,0.09L673.17,506.75z M677.17,505.83c3.77-0.73,7.85-1.17,12.11-1.25l1.08,16.06
				c-0.19,0.01-0.37,0.03-0.54,0.06L677.17,505.83z M702.5,505.52l-11.07,15.15c-0.19-0.02-0.39-0.04-0.59-0.04l-1.08-16.06
				c0.31,0,0.62-0.01,0.94-0.01C694.83,504.56,698.8,504.9,702.5,505.52z M702.95,505.6c1.83,0.32,3.58,0.71,5.26,1.16l-15.88,14.12
				c-0.14-0.05-0.29-0.09-0.45-0.12L702.95,505.6z M709.05,506.98c2.23,0.64,4.31,1.39,6.21,2.23l-20.7,10.66L709.05,506.98z
				 M715.61,509.37c3.24,1.49,5.92,3.26,7.85,5.23l-30.23,6.73c-0.05-0.04-0.11-0.09-0.17-0.13l0.6-0.53L715.61,509.37z
				 M723.65,514.82c1.89,2,3.02,4.21,3.2,6.53l-33.28,0.52c-0.03-0.11-0.08-0.22-0.16-0.32L723.65,514.82z M672.83,506.45
				l-7.13-6.34c1.65-0.44,3.34-0.83,5.07-1.18l5.68,6.67C675.21,505.85,674,506.13,672.83,506.45z M671.21,498.83
				c5.53-1.08,11.45-1.7,17.56-1.8l0.49,7.2c-4.35,0.08-8.52,0.53-12.36,1.28L671.21,498.83z M689.25,497.03
				c0.48-0.01,0.96-0.01,1.44-0.01c5.88,0,11.62,0.47,17.02,1.37l-4.97,6.8c-3.78-0.63-7.83-0.97-12.04-0.97
				c-0.32,0-0.64,0-0.96,0.01L689.25,497.03z M708.16,498.46c2.6,0.45,5.11,0.99,7.53,1.64l-7.13,6.34
				c-1.71-0.46-3.5-0.85-5.37-1.18L708.16,498.46z M728.69,539.05l-10.91-4.93c3.22-1.68,5.77-3.65,7.47-5.82l14.03,2.49
				C736.94,533.82,733.37,536.62,728.69,539.05z M710.62,545.14l-5.68-6.67c4.76-0.96,9.01-2.4,12.52-4.17l10.91,4.93
				c-0.33,0.17-0.67,0.33-1.01,0.5C722.48,542.07,716.8,543.89,710.62,545.14z M692.62,547.03l-0.48-7.2
				c4.35-0.08,8.52-0.53,12.36-1.28l5.68,6.68C704.65,546.3,698.73,546.92,692.62,547.03z M673.68,545.67l4.97-6.8
				c3.78,0.63,7.83,0.97,12.05,0.97c0.32,0,0.64,0,0.96-0.01l0.48,7.2c-0.48,0.01-0.96,0.01-1.44,0.01
				C684.81,547.04,679.08,546.57,673.68,545.67z M655.42,540.36l10.22-5.26c3.6,1.61,7.86,2.87,12.56,3.69l-4.97,6.8
				C666.68,544.47,660.63,542.7,655.42,540.36z M643.7,532.62l13.58-3.02c1.97,2.02,4.7,3.82,8.01,5.34l-10.22,5.26
				c-0.35-0.16-0.69-0.32-1.04-0.49C649.7,537.62,646.22,535.23,643.7,532.62z M638.88,522.96l14.92-0.23
				c0.19,2.37,1.34,4.62,3.27,6.67l-13.58,3.02C640.71,529.47,639.13,526.27,638.88,522.96z M641.93,513.49l14.03,2.49
				c-1.42,1.89-2.19,3.92-2.19,6.05c0,0.15,0,0.31,0.01,0.46l-14.92,0.23c-0.01-0.23-0.02-0.46-0.02-0.7
				C638.85,519.07,639.91,516.19,641.93,513.49z M652.7,505.01l10.91,4.93c-3.22,1.68-5.77,3.65-7.47,5.83l-14.03-2.49
				C644.44,510.24,648.02,507.44,652.7,505.01z M664.86,500.33l7.14,6.35c-2.98,0.85-5.69,1.89-8.06,3.1l-10.91-4.93
				c0.33-0.17,0.67-0.34,1.01-0.5C657.31,502.76,660.95,501.42,664.86,500.33z M716.38,499.49c-2.48-0.66-5.07-1.22-7.74-1.68
				l1.55-2.12c0.44,0.07,0.9,0.11,1.39,0.11c2.39,0,4.32-0.93,4.32-2.09c0-1.15-1.94-2.09-4.32-2.09c-2.39,0-4.32,0.93-4.32,2.09
				c0,0.84,1.02,1.56,2.49,1.89l-1.55,2.13c-5.55-0.93-11.45-1.41-17.49-1.41c-0.5,0-1,0-1.49,0.01l-0.15-2.19
				c2.21-0.09,3.94-0.99,3.94-2.08c0-1.15-1.94-2.09-4.32-2.09s-4.32,0.93-4.32,2.09c0,1.14,1.88,2.06,4.22,2.09l0.15,2.19
				c-6.28,0.11-12.37,0.74-18.06,1.85l-1.82-2.13c1.51-0.33,2.57-1.06,2.57-1.91c0-1.15-1.94-2.09-4.32-2.09s-4.32,0.93-4.32,2.09
				s1.94,2.09,4.32,2.09c0.46,0,0.9-0.03,1.31-0.1l1.82,2.14c-1.78,0.36-3.52,0.76-5.21,1.21l-25.82-22.96H742.2L716.38,499.49z
				 M725.97,503.7l-10.22,5.26c-1.94-0.87-4.07-1.63-6.36-2.28l7.14-6.35C719.89,501.27,723.06,502.39,725.97,503.7z M737.69,511.43
				l-13.58,3.02c-1.97-2.02-4.7-3.82-8.01-5.34l10.22-5.26c0.35,0.16,0.69,0.32,1.04,0.49
				C731.69,506.43,735.16,508.83,737.69,511.43z M742.5,521.1l-14.92,0.23c-0.19-2.37-1.34-4.62-3.27-6.67l13.58-3.02
				C740.67,514.59,742.25,517.79,742.5,521.1z"/>
			<rect x="763.77" y="466.31" class="st5" width="55.57" height="39.28"/>
			<rect x="811.2" y="466.54" class="st5" width="55.57" height="23.79"/>
			<rect x="595.71" y="473.85" class="st5" width="31.17" height="19.96"/>
			<rect x="791.55" y="466.31" class="st5" width="39.3" height="76.64"/>
			<polygon class="st5" points="895.57,466.31 843.73,466.31 843.73,511.07 883.03,511.07 			"/>
			<rect x="872.87" y="466.31" class="st5" width="45.4" height="10.22"/>
			<rect x="820.69" y="538.14" class="st5" width="1.36" height="20.83"/>
			<rect x="825.26" y="533.67" class="st5" width="1.36" height="20.83"/>
			<rect x="816.54" y="530.79" class="st5" width="1.36" height="20.83"/>
			<rect x="845.76" y="507.63" class="st5" width="18.55" height="7.05"/>
			<rect x="847.8" y="513.23" class="st5" width="14.48" height="3.96"/>
			<rect x="871.68" y="509.77" class="st5" width="3.56" height="2.85"/>
			<rect x="876.5" y="509.77" class="st5" width="5.08" height="5.44"/>
		</g>
		<g>
			<g>
				<rect x="595.55" y="452.39" class="st6" width="47.12" height="73.28"/>
				<rect x="592.03" y="524.49" class="st6" width="54.16" height="0.74"/>
				<rect x="593.5" y="514.2" class="st6" width="51.23" height="0.74"/>
				<rect x="593.5" y="504.23" class="st6" width="51.23" height="0.74"/>
				<rect x="593.5" y="494.26" class="st6" width="51.23" height="0.74"/>
				<rect x="593.5" y="484.29" class="st6" width="51.23" height="0.74"/>
				<rect x="593.5" y="474.32" class="st6" width="51.23" height="0.74"/>
				<rect x="593.5" y="464.36" class="st6" width="51.23" height="0.74"/>
				<rect x="590.24" y="525.23" class="st6" width="57.74" height="2.02"/>
				<rect x="599.79" y="516.23" class="st7" width="4.9" height="5.85"/>
				<rect x="610.74" y="516.23" class="st6" width="4.9" height="5.85"/>
				<rect x="621.69" y="516.23" class="st6" width="4.9" height="5.85"/>
				<rect x="632.64" y="516.23" class="st6" width="4.9" height="5.85"/>
				<rect x="599.79" y="506.66" class="st6" width="4.9" height="5.85"/>
				<rect x="610.74" y="506.66" class="st7" width="4.9" height="5.85"/>
				<rect x="621.69" y="506.66" class="st6" width="4.9" height="5.85"/>
				<rect x="632.64" y="506.66" class="st6" width="4.9" height="5.85"/>
				<rect x="599.79" y="496.69" class="st6" width="4.9" height="5.85"/>
				<rect x="610.74" y="496.69" class="st6" width="4.9" height="5.85"/>
				<rect x="621.69" y="496.69" class="st6" width="4.9" height="5.85"/>
				<rect x="632.64" y="496.69" class="st7" width="4.9" height="5.85"/>
				<rect x="599.79" y="486.72" class="st6" width="4.9" height="5.85"/>
				<rect x="610.74" y="486.72" class="st7" width="4.9" height="5.85"/>
				<rect x="621.69" y="486.72" class="st7" width="4.9" height="5.85"/>
				<rect x="632.64" y="486.72" class="st6" width="4.9" height="5.85"/>
				<rect x="599.79" y="476.75" class="st7" width="4.9" height="5.85"/>
				<rect x="610.74" y="476.75" class="st6" width="4.9" height="5.85"/>
				<rect x="621.69" y="476.75" class="st6" width="4.9" height="5.85"/>
				<rect x="632.64" y="476.75" class="st6" width="4.9" height="5.85"/>
				<rect x="599.79" y="466.78" class="st6" width="4.9" height="5.85"/>
				<rect x="610.74" y="466.78" class="st6" width="4.9" height="5.85"/>
				<rect x="621.69" y="466.78" class="st7" width="4.9" height="5.85"/>
				<rect x="632.64" y="466.78" class="st6" width="4.9" height="5.85"/>
				<rect x="599.79" y="456.81" class="st6" width="4.9" height="5.85"/>
				<rect x="610.74" y="456.81" class="st7" width="4.9" height="5.85"/>
				<rect x="621.69" y="456.81" class="st6" width="4.9" height="5.85"/>
				<rect x="632.64" y="456.81" class="st7" width="4.9" height="5.85"/>
				<rect x="598.52" y="526.24" class="st6" width="16.03" height="3.81"/>
				<rect x="597.44" y="529.51" class="st6" width="18.2" height="0.65"/>
			</g>
			<g>
				<polygon class="st6" points="528.02,452.39 465.25,452.39 465.25,522.01 528.02,529.42 				"/>
				<rect x="462.49" y="452.39" class="st6" width="5.51" height="70.85"/>
				<rect x="478.18" y="452.39" class="st6" width="5.51" height="72.85"/>
				<rect x="493.87" y="452.39" class="st6" width="5.51" height="74.92"/>
				<rect x="509.57" y="452.39" class="st6" width="5.51" height="76.61"/>
				<rect x="525.26" y="452.39" class="st6" width="5.51" height="78.41"/>
				<rect x="469.43" y="511.91" class="st7" width="7.32" height="5.38"/>
				<rect x="485.13" y="511.91" class="st7" width="7.32" height="5.38"/>
				<rect x="500.82" y="511.91" class="st6" width="7.32" height="5.38"/>
				<rect x="516.51" y="511.91" class="st7" width="7.32" height="5.38"/>
				<rect x="469.43" y="502.54" class="st6" width="7.32" height="5.38"/>
				<rect x="485.13" y="502.54" class="st6" width="7.32" height="5.38"/>
				<rect x="500.82" y="502.54" class="st7" width="7.32" height="5.38"/>
				<rect x="516.51" y="502.54" class="st7" width="7.32" height="5.38"/>
				<rect x="469.43" y="493.17" class="st7" width="7.32" height="5.38"/>
				<rect x="485.13" y="493.17" class="st7" width="7.32" height="5.38"/>
				<rect x="500.82" y="493.17" class="st7" width="7.32" height="5.38"/>
				<rect x="516.51" y="493.17" class="st6" width="7.32" height="5.38"/>
				<rect x="469.43" y="483.8" class="st7" width="7.32" height="5.38"/>
				<rect x="485.13" y="483.8" class="st6" width="7.32" height="5.38"/>
				<rect x="500.82" y="483.8" class="st7" width="7.32" height="5.38"/>
				<rect x="516.51" y="483.8" class="st7" width="7.32" height="5.38"/>
				<rect x="469.43" y="474.44" class="st7" width="7.32" height="5.38"/>
				<rect x="485.13" y="474.44" class="st7" width="7.32" height="5.38"/>
				<rect x="500.82" y="474.44" class="st6" width="7.32" height="5.38"/>
				<rect x="516.51" y="474.44" class="st7" width="7.32" height="5.38"/>
				<rect x="469.43" y="465.07" class="st6" width="7.32" height="5.38"/>
				<rect x="485.13" y="465.07" class="st6" width="7.32" height="5.38"/>
				<rect x="500.82" y="465.07" class="st7" width="7.32" height="5.38"/>
				<rect x="516.51" y="465.07" class="st7" width="7.32" height="5.38"/>
				<rect x="469.43" y="455.7" class="st7" width="7.32" height="5.38"/>
				<rect x="485.13" y="455.7" class="st6" width="7.32" height="5.38"/>
				<rect x="500.82" y="455.7" class="st7" width="7.32" height="5.38"/>
				<rect x="516.51" y="455.7" class="st6" width="7.32" height="5.38"/>
			</g>
			<polygon class="st6" points="286.2,518.68 286.2,517.95 284.7,517.95 284.7,515.89 310.97,515.89 310.97,452.39 267.87,452.39 
				267.87,512.58 267.87,515.89 267.87,517.95 266.31,517.95 266.31,518.68 			"/>
			<rect x="359.62" y="452.39" class="st6" width="36.92" height="37.44"/>
			<g>
				<rect x="198.72" y="452.39" class="st6" width="30.01" height="46.03"/>
				<rect x="222.78" y="452.39" class="st6" width="32.7" height="36.44"/>
				<rect x="209.52" y="494.75" class="st6" width="13.27" height="5.51"/>
				<rect x="225.03" y="488.08" class="st6" width="34.86" height="1.35"/>
			</g>
			<rect x="251.97" y="452.39" class="st6" width="36.66" height="20.81"/>
			<rect x="133.48" y="452.39" class="st6" width="29.82" height="37.73"/>
			<rect x="107.6" y="452.39" class="st6" width="39.23" height="18.93"/>
			<rect x="64.4" y="452.39" class="st6" width="24.54" height="22.02"/>
			<rect x="84.17" y="452.39" class="st6" width="58" height="6.9"/>
			<rect x="42.18" y="452.39" class="st6" width="29.73" height="9.13"/>
			<rect x="163.3" y="452.39" class="st6" width="46.21" height="13.93"/>
			<rect x="298.87" y="452.39" class="st6" width="71.99" height="6"/>
			<rect x="426.5" y="452.39" class="st6" width="71.99" height="6"/>
			<polygon class="st6" points="368.05,476 340.69,476 329.12,455.39 368.05,455.39 			"/>
			<rect x="380.7" y="483.13" class="st6" width="0.76" height="22.87"/>
			<rect x="384.51" y="484.76" class="st6" width="1.02" height="13.49"/>
			<rect x="379.06" y="489.18" class="st6" width="13.84" height="6.68"/>
			<rect x="376.73" y="495.78" class="st6" width="18.33" height="0.6"/>
			<rect x="389.82" y="452.39" class="st6" width="44.73" height="19.31"/>
			<rect x="426" y="455.7" class="st6" width="28.74" height="37.26"/>
			<rect x="538.23" y="452.39" class="st6" width="45.91" height="33.57"/>
			<rect x="523.83" y="452.39" class="st6" width="52.35" height="12.37"/>
			<rect x="581.6" y="452.39" class="st6" width="34.04" height="4.43"/>
			<rect x="634.03" y="452.39" class="st6" width="55.34" height="12.37"/>
			<g>
				
					<rect x="656.08" y="452.39" transform="matrix(-1 -1.224647e-16 1.224647e-16 -1 1381.0188 949.5275)" class="st6" width="68.87" height="44.75"/>
				
					<rect x="654.3" y="497.14" transform="matrix(-1 -1.224647e-16 1.224647e-16 -1 1383.2576 995.9964)" class="st6" width="74.66" height="1.72"/>
				
					<rect x="691.63" y="494.44" transform="matrix(-1 -1.224647e-16 1.224647e-16 -1 1413.5223 997.9581)" class="st6" width="30.26" height="9.07"/>
				
					<rect x="676.66" y="498" transform="matrix(-1 -1.224647e-16 1.224647e-16 -1 1358.4019 1001.5138)" class="st6" width="5.08" height="5.52"/>
				
					<rect x="665.99" y="498" transform="matrix(-1 -1.224647e-16 1.224647e-16 -1 1337.5638 1001.5138)" class="st6" width="5.59" height="5.52"/>
			</g>
			<g>
				
					<rect x="772.28" y="452.39" transform="matrix(-1 -1.224647e-16 1.224647e-16 -1 1599.0825 970.1339)" class="st6" width="54.51" height="65.36"/>
				
					<rect x="770.74" y="517.02" transform="matrix(-1 -1.224647e-16 1.224647e-16 -1 1599.0825 1035.8929)" class="st6" width="57.61" height="1.85"/>
				
					<rect x="774.12" y="512.45" transform="matrix(-1 -1.224647e-16 1.224647e-16 -1 1599.0825 1033.689)" class="st6" width="50.85" height="8.78"/>
				
					<rect x="800.94" y="515.23" transform="matrix(-1 -1.224647e-16 1.224647e-16 -1 1622.0109 1040.0614)" class="st6" width="20.14" height="9.59"/>
				<polygon class="st6" points="809.42,522.12 821.07,522.12 821.07,527.17 812.72,527.17 				"/>
				
					<rect x="815.25" y="520.12" transform="matrix(-1 -1.224647e-16 1.224647e-16 -1 1631.6232 1051.4824)" class="st6" width="1.13" height="11.25"/>
				<path class="st6" d="M814.8,531.95c0-0.32,0.45-0.58,1.01-0.58s1.01,0.26,1.01,0.58c0,0.32-0.45,0.58-1.01,0.58
					S814.8,532.27,814.8,531.95z"/>
			</g>
			<rect x="819.34" y="452.39" class="st6" width="24.4" height="26.98"/>
			<rect x="749.84" y="452.39" class="st6" width="27.82" height="40.14"/>
			<polygon class="st6" points="763.77,452.39 724.58,452.39 724.58,473.85 757.65,466.78 			"/>
			<rect x="835.72" y="452.39" class="st6" width="59.85" height="11.66"/>
			<rect x="873.46" y="452.39" class="st6" width="34.77" height="46.54"/>
			<rect x="900.1" y="452.39" class="st6" width="57.6" height="8.69"/>
			<rect x="871.68" y="498.25" class="st6" width="38.14" height="1.53"/>
			<rect x="902.81" y="496.97" class="st6" width="0.76" height="9.38"/>
			<rect x="897.73" y="497.64" class="st6" width="0.76" height="7.52"/>
			<polygon class="st6" points="921.11,481.39 905.6,481.39 905.6,460.07 927.71,460.07 			"/>
		</g>
	</g>
</g>
<g id="Object">
	<g>
		<g>
			<g>
				<rect x="276.44" y="257.25" class="st3" width="43.69" height="169.06"/>
				<rect x="283.57" y="245.13" class="st3" width="29.41" height="71.05"/>
				<rect x="290.12" y="237.44" class="st3" width="16.31" height="39.41"/>
				<polygon class="st3" points="303.84,257.69 292.72,257.69 292.72,230.84 296.73,230.84 300.7,230.84 303.84,230.84 				"/>
				<g>
					<polygon class="st3" points="297.55,246 296.34,246 296.34,219.14 296.78,219.14 297.21,219.14 297.55,219.14 					"/>
					<polygon class="st3" points="300.22,236.71 299.01,236.71 299.01,209.86 299.45,209.86 299.88,209.86 300.22,209.86 					"/>
				</g>
				<rect x="275.27" y="256.82" class="st3" width="46.02" height="1.8"/>
				<rect x="282.5" y="244.26" class="st3" width="31.56" height="1.73"/>
				<rect x="288.93" y="236.71" class="st3" width="18.19" height="1.33"/>
				<rect x="286.28" y="248.01" class="st4" width="1.37" height="7.44"/>
				<rect x="290.06" y="248.01" class="st4" width="1.37" height="7.44"/>
				<rect x="293.84" y="248.01" class="st4" width="1.37" height="7.44"/>
				<rect x="297.63" y="248.01" class="st4" width="1.37" height="7.44"/>
				<rect x="301.41" y="248.01" class="st4" width="1.37" height="7.44"/>
				<rect x="305.19" y="248.01" class="st4" width="1.37" height="7.44"/>
				<rect x="308.98" y="248.01" class="st4" width="1.37" height="7.44"/>
				<rect x="280.27" y="263.99" class="st3" width="3.3" height="8.83"/>
				<rect x="286.81" y="263.99" class="st4" width="3.3" height="8.83"/>
				<rect x="293.36" y="263.99" class="st3" width="3.3" height="8.83"/>
				<rect x="299.9" y="263.99" class="st3" width="3.3" height="8.83"/>
				<rect x="306.44" y="263.99" class="st3" width="3.3" height="8.83"/>
				<rect x="312.98" y="263.99" class="st3" width="3.3" height="8.83"/>
				<rect x="280.27" y="277.76" class="st3" width="3.3" height="8.83"/>
				<rect x="286.81" y="277.76" class="st3" width="3.3" height="8.83"/>
				<rect x="293.36" y="277.76" class="st3" width="3.3" height="8.83"/>
				<rect x="299.9" y="277.76" class="st4" width="3.3" height="8.83"/>
				<rect x="306.44" y="277.76" class="st3" width="3.3" height="8.83"/>
				<rect x="312.98" y="277.76" class="st3" width="3.3" height="8.83"/>
				<rect x="280.27" y="291.53" class="st3" width="3.3" height="8.83"/>
				<rect x="286.81" y="291.53" class="st3" width="3.3" height="8.83"/>
				<rect x="293.36" y="291.53" class="st3" width="3.3" height="8.83"/>
				<rect x="299.9" y="291.53" class="st3" width="3.3" height="8.83"/>
				<rect x="306.44" y="291.53" class="st4" width="3.3" height="8.83"/>
				<rect x="312.98" y="291.53" class="st4" width="3.3" height="8.83"/>
				<rect x="280.27" y="305.29" class="st4" width="3.3" height="8.83"/>
				<rect x="286.81" y="305.29" class="st3" width="3.3" height="8.83"/>
				<rect x="293.36" y="305.29" class="st3" width="3.3" height="8.83"/>
				<rect x="299.9" y="305.29" class="st3" width="3.3" height="8.83"/>
				<rect x="306.44" y="305.29" class="st3" width="3.3" height="8.83"/>
				<rect x="312.98" y="305.29" class="st3" width="3.3" height="8.83"/>
				<rect x="280.27" y="319.06" class="st3" width="3.3" height="8.83"/>
				<rect x="286.81" y="319.06" class="st4" width="3.3" height="8.83"/>
				<rect x="293.36" y="319.06" class="st3" width="3.3" height="8.83"/>
				<rect x="299.9" y="319.06" class="st4" width="3.3" height="8.83"/>
				<rect x="306.44" y="319.06" class="st3" width="3.3" height="8.83"/>
				<rect x="312.98" y="319.06" class="st3" width="3.3" height="8.83"/>
				<rect x="280.27" y="332.83" class="st3" width="3.3" height="8.83"/>
				<rect x="286.81" y="332.83" class="st3" width="3.3" height="8.83"/>
				<rect x="293.36" y="332.83" class="st3" width="3.3" height="8.83"/>
				<rect x="299.9" y="332.83" class="st3" width="3.3" height="8.83"/>
				<rect x="306.44" y="332.83" class="st3" width="3.3" height="8.83"/>
				<rect x="312.98" y="332.83" class="st4" width="3.3" height="8.83"/>
				<rect x="280.27" y="346.59" class="st3" width="3.3" height="8.83"/>
				<rect x="286.81" y="346.59" class="st4" width="3.3" height="8.83"/>
				<rect x="293.36" y="346.59" class="st4" width="3.3" height="8.83"/>
				<rect x="299.9" y="346.59" class="st3" width="3.3" height="8.83"/>
				<rect x="306.44" y="346.59" class="st3" width="3.3" height="8.83"/>
				<rect x="312.98" y="346.59" class="st3" width="3.3" height="8.83"/>
				<rect x="280.27" y="360.36" class="st3" width="3.3" height="8.83"/>
				<rect x="286.81" y="360.36" class="st3" width="3.3" height="8.83"/>
				<rect x="293.36" y="360.36" class="st3" width="3.3" height="8.83"/>
				<rect x="299.9" y="360.36" class="st3" width="3.3" height="8.83"/>
				<rect x="306.44" y="360.36" class="st4" width="3.3" height="8.83"/>
				<rect x="312.98" y="360.36" class="st3" width="3.3" height="8.83"/>
				<rect x="280.27" y="374.13" class="st3" width="3.3" height="8.83"/>
				<rect x="286.81" y="374.13" class="st4" width="3.3" height="8.83"/>
				<rect x="293.36" y="374.13" class="st3" width="3.3" height="8.83"/>
				<rect x="299.9" y="374.13" class="st3" width="3.3" height="8.83"/>
				<rect x="306.44" y="374.13" class="st3" width="3.3" height="8.83"/>
				<rect x="312.98" y="374.13" class="st3" width="3.3" height="8.83"/>
				<rect x="280.27" y="387.9" class="st3" width="3.3" height="8.83"/>
				<rect x="286.81" y="387.9" class="st3" width="3.3" height="8.83"/>
				<rect x="293.36" y="387.9" class="st3" width="3.3" height="8.83"/>
				<rect x="299.9" y="387.9" class="st4" width="3.3" height="8.83"/>
				<rect x="306.44" y="387.9" class="st3" width="3.3" height="8.83"/>
				<rect x="312.98" y="387.9" class="st4" width="3.3" height="8.83"/>
				<rect x="280.27" y="401.66" class="st4" width="3.3" height="8.83"/>
				<rect x="286.81" y="401.66" class="st3" width="3.3" height="8.83"/>
				<rect x="293.36" y="401.66" class="st4" width="3.3" height="8.83"/>
				<rect x="299.9" y="401.66" class="st3" width="3.3" height="8.83"/>
				<rect x="306.44" y="401.66" class="st3" width="3.3" height="8.83"/>
				<rect x="312.98" y="401.66" class="st3" width="3.3" height="8.83"/>
			</g>
			<g>
				<rect x="149.56" y="263.68" class="st3" width="70.23" height="142.42"/>
				<rect x="147.57" y="261.23" class="st3" width="74.22" height="4.03"/>
				<rect x="151.92" y="256.08" class="st3" width="65.5" height="19.13"/>
				<rect x="156.94" y="248.25" class="st3" width="25.94" height="20.91"/>
				<polygon class="st3" points="171.95,254.14 156.94,254.14 156.94,243.14 167.7,243.14 				"/>
				<rect x="162.99" y="234" class="st3" width="1.46" height="24.51"/>
				<path class="st3" d="M165.02,232.73c0,0.7-0.59,1.27-1.31,1.27c-0.72,0-1.31-0.57-1.31-1.27c0-0.7,0.59-1.27,1.31-1.27
					C164.44,231.46,165.02,232.03,165.02,232.73z"/>
			</g>
			<polygon class="st3" points="801.32,416.94 724.45,416.94 714.86,207.55 801.32,225 			"/>
			<polygon class="st3" points="465.95,297.36 465.95,227.35 453.89,227.35 453.89,208.6 449.58,208.6 449.58,181.1 425.86,181.1 
				425.86,160.89 423.74,160.89 423.74,181.1 419.1,181.1 419.1,155.8 416.98,155.8 416.98,181.1 401.98,181.1 401.98,227.35 
				394.23,227.35 394.23,297.36 387.59,297.36 387.59,424.87 470.62,424.87 470.62,297.36 			"/>
		</g>
		<rect x="51.42" y="414.35" class="st3" width="918.46" height="21.24"/>
		<polygon class="st5" points="592.05,430.38 551.38,430.38 567.23,351.2 592.05,351.2 		"/>
		<g>
			<rect x="18.46" y="433.47" class="st5" width="964.35" height="33.49"/>
			<polygon class="st5" points="558.72,283.86 558.72,248.77 545.66,248.77 545.66,235.41 538.68,235.41 538.68,224.19 
				536.23,224.19 536.23,204.95 535.59,204.95 535.59,224.19 533.14,224.19 533.14,235.41 526.15,235.41 526.15,248.77 
				513.2,248.77 513.2,283.86 510.5,283.86 510.5,347.56 490.41,347.56 490.41,420.18 510.5,420.18 530.59,420.18 561.32,420.18 
				561.32,283.86 			"/>
			<polygon class="st5" points="633.77,324.16 570.57,324.16 570.57,325.28 573.43,325.28 573.43,429.2 630.91,429.2 630.91,325.28 
				633.77,325.28 			"/>
			<rect x="289.5" y="350.05" class="st5" width="56.04" height="86.56"/>
			<rect x="184.68" y="394.4" class="st5" width="96.38" height="42.21"/>
			<rect x="236.34" y="300.08" class="st5" width="21.16" height="103.66"/>
			<rect x="241.01" y="272.43" class="st5" width="1.1" height="56.37"/>
			<rect x="244.58" y="276.71" class="st5" width="1.1" height="56.37"/>
			<rect x="237.97" y="293.67" class="st5" width="12.93" height="13.89"/>
			<rect x="277.28" y="365.54" class="st5" width="36.82" height="71.07"/>
			<rect x="354.63" y="290.33" class="st5" width="69.12" height="146.28"/>
			<rect x="361.42" y="285.31" class="st5" width="55.54" height="24.36"/>
			<rect x="349.27" y="293.39" class="st5" width="79.84" height="1.71"/>
			<rect x="342.1" y="362.74" class="st5" width="32.57" height="73.87"/>
			<rect x="108.83" y="359.93" class="st5" width="37.37" height="76.68"/>
			<g>
				<rect x="120.92" y="339.09" class="st5" width="74.47" height="97.52"/>
				<rect x="116.58" y="335.35" class="st5" width="80.74" height="3.74"/>
				<rect x="124.22" y="325.2" class="st5" width="32.73" height="19.77"/>
				<rect x="167.64" y="325.2" class="st5" width="5.5" height="12.02"/>
				<rect x="178.63" y="325.2" class="st5" width="6.05" height="12.02"/>
			</g>
			<rect x="88.5" y="406.95" class="st5" width="39.02" height="29.66"/>
			<rect x="73.76" y="394.4" class="st5" width="18.48" height="42.21"/>
			<rect x="51.42" y="421.78" class="st5" width="31.58" height="14.83"/>
			<rect x="416.96" y="403.75" class="st5" width="389.12" height="32.86"/>
			<path class="st5" d="M775.01,312.78c-2.45,0-4.46,1.83-4.66,4.16l-5.48-0.17c0.01-0.52,0.02-1.04,0.02-1.57
				c0-6.63-1.18-13.08-3.43-19.13l4.58-1.64c0.72,1.61,2.37,2.74,4.29,2.74c2.58,0,4.68-2.04,4.68-4.55c0-2.51-2.09-4.55-4.68-4.55
				s-4.68,2.04-4.68,4.55c0,0.46,0.07,0.91,0.2,1.33l-4.57,1.64c-2.61-6.8-6.58-13.08-11.79-18.52l3.58-3.26
				c0.84,0.78,1.98,1.26,3.23,1.26c2.58,0,4.68-2.04,4.68-4.55s-2.09-4.55-4.68-4.55s-4.68,2.04-4.68,4.55
				c0,1.11,0.41,2.13,1.09,2.92l-3.58,3.26c-0.37-0.38-0.74-0.75-1.12-1.12c-5.42-5.27-11.73-9.36-18.6-12.14l1.97-4.66
				c0.45,0.14,0.92,0.21,1.42,0.21c2.58,0,4.68-2.04,4.68-4.55c0-2.51-2.09-4.55-4.68-4.55s-4.68,2.04-4.68,4.55
				c0,1.85,1.14,3.44,2.77,4.15l-1.96,4.65c-6.15-2.42-12.73-3.8-19.53-4.04l0.21-6.37c0.05,0,0.1,0,0.15,0
				c2.58,0,4.68-2.04,4.68-4.55s-2.09-4.55-4.68-4.55s-4.68,2.04-4.68,4.55c0,2.29,1.74,4.18,4.01,4.5l-0.21,6.4
				c-0.54-0.01-1.07-0.02-1.61-0.02c-6.54,0-12.91,1.05-18.92,3.08l-1.89-5.2c1.7-0.68,2.9-2.31,2.9-4.21
				c0-2.51-2.09-4.55-4.68-4.55s-4.68,2.04-4.68,4.55s2.09,4.55,4.68,4.55c0.45,0,0.88-0.06,1.29-0.18l1.89,5.2
				c-7.28,2.53-14,6.48-19.8,11.73l-3.42-3.55c0.76-0.81,1.23-1.89,1.23-3.07c0-2.51-2.09-4.55-4.68-4.55s-4.68,2.04-4.68,4.55
				c0,2.51,2.09,4.55,4.68,4.55c1.18,0,2.25-0.42,3.07-1.12l3.41,3.54c-0.39,0.36-0.78,0.72-1.16,1.09
				c-4.82,4.69-8.68,10.06-11.49,15.89l-4.34-1.95c0.16-0.46,0.24-0.94,0.24-1.45c0-2.51-2.09-4.55-4.68-4.55s-4.68,2.04-4.68,4.55
				s2.09,4.55,4.68,4.55c1.88,0,3.5-1.08,4.24-2.63l4.32,1.94c-3.1,6.6-4.85,13.77-5.13,21.19l-5.57-0.18
				c-0.07-2.45-2.13-4.42-4.67-4.42c-2.58,0-4.68,2.04-4.68,4.55c0,2.51,2.09,4.55,4.68,4.55c2.45,0,4.46-1.83,4.66-4.17l5.57,0.18
				c-0.01,0.52-0.02,1.04-0.02,1.57c0,6.63,1.18,13.08,3.43,19.13l-4.58,1.64c-0.72-1.61-2.37-2.74-4.29-2.74
				c-2.58,0-4.68,2.04-4.68,4.55s2.09,4.55,4.68,4.55s4.68-2.04,4.68-4.55c0-0.46-0.07-0.91-0.2-1.33l4.57-1.64
				c2.61,6.8,6.58,13.08,11.79,18.52l-3.58,3.26c-0.84-0.78-1.98-1.26-3.23-1.26c-2.58,0-4.68,2.04-4.68,4.55
				c0,2.51,2.09,4.55,4.68,4.55s4.68-2.04,4.68-4.55c0-1.11-0.41-2.13-1.09-2.92l3.58-3.26c0.37,0.38,0.74,0.75,1.12,1.12
				c3.65,3.55,7.71,6.56,12.06,9l-28.2,50.53h-5.06v1.44h-2.48v2.87h128.83v-2.87h-2.48v-1.44h-5.06l-28.2-50.53
				c3.76-2.1,7.29-4.63,10.53-7.56l4.57,4.74c-0.98,0.83-1.6,2.06-1.6,3.42c0,2.51,2.09,4.55,4.68,4.55s4.68-2.04,4.68-4.55
				s-2.09-4.55-4.68-4.55c-0.99,0-1.91,0.3-2.66,0.81l-4.6-4.77c0.39-0.36,0.78-0.72,1.16-1.09c4.82-4.69,8.68-10.06,11.49-15.89
				l5.09,2.28c-0.09,0.36-0.14,0.73-0.14,1.11c0,2.51,2.09,4.55,4.68,4.55s4.68-2.04,4.68-4.55c0-2.51-2.09-4.55-4.68-4.55
				c-2,0-3.71,1.23-4.38,2.95l-5.03-2.26c3.1-6.6,4.85-13.77,5.13-21.19l5.48,0.17c0.07,2.45,2.13,4.42,4.67,4.42
				c2.58,0,4.68-2.04,4.68-4.55S777.59,312.78,775.01,312.78z M763.34,315.2c0,0.51-0.01,1.01-0.02,1.52l-16.13-0.51
				c0.01-0.34,0.01-0.67,0.01-1.01c0-4.62-0.84-9.06-2.37-13.17L760,296.6C762.19,302.48,763.34,308.76,763.34,315.2z M746.4,316.19
				l-35.99-1.14c-0.01-0.23-0.05-0.45-0.11-0.66l33.79-12.1c1.5,4.03,2.32,8.38,2.32,12.91
				C746.41,315.53,746.41,315.86,746.4,316.19z M668.15,314.22l35.99,1.14c0.01,0.23,0.05,0.45,0.11,0.66l-33.79,12.1
				c-1.5-4.03-2.32-8.38-2.32-12.91C668.13,314.87,668.14,314.55,668.15,314.22z M709.74,313.31L736,289.38
				c3.41,3.58,6.12,7.79,7.92,12.44l-33.79,12.1C710.02,313.7,709.89,313.49,709.74,313.31z M709.38,312.94
				c-0.2-0.18-0.43-0.33-0.68-0.45l13.68-32.38c5.04,2.06,9.55,5.11,13.26,8.91L709.38,312.94z M708.22,312.29
				c-0.19-0.06-0.39-0.1-0.59-0.12l1.17-34.99c4.61,0.17,9.02,1.13,13.1,2.73L708.22,312.29z M707.12,312.15
				c-0.22,0.01-0.43,0.04-0.64,0.1l-11.97-33.02c4-1.35,8.3-2.08,12.77-2.08c0.34,0,0.68,0,1.01,0.01L707.12,312.15z M705.99,312.41
				c-0.24,0.1-0.46,0.24-0.67,0.39l-24.61-25.53c3.81-3.43,8.32-6.13,13.3-7.88L705.99,312.41z M704.94,313.15
				c-0.15,0.17-0.29,0.35-0.4,0.54l-32.69-14.67c2.09-4.3,4.98-8.17,8.48-11.41L704.94,313.15z M704.32,314.16
				c-0.08,0.22-0.14,0.45-0.17,0.7l-35.99-1.14c0.2-5.06,1.42-9.86,3.47-14.23L704.32,314.16z M704.42,316.49
				c0.08,0.18,0.19,0.34,0.3,0.5l-0.21,0.38l-25.96,23.65c-3.41-3.58-6.12-7.79-7.92-12.44L704.42,316.49z M703.73,318.78
				l-16.3,29.21c-3.15-1.81-6.02-4.03-8.52-6.6L703.73,318.78z M705.5,317.73c0.11,0.07,0.23,0.14,0.35,0.2l-13.68,32.38
				c-1.32-0.54-2.6-1.15-3.84-1.81L705.5,317.73z M706.32,318.12c0.19,0.06,0.39,0.1,0.59,0.12l-1.17,34.99
				c-4.61-0.17-9.02-1.13-13.1-2.73L706.32,318.12z M707.27,353.26c-0.34,0-0.68,0-1.01-0.01l1.17-34.99
				c0.22-0.01,0.43-0.04,0.64-0.1l11.97,33.02C716.04,352.53,711.74,353.26,707.27,353.26z M708.56,317.99
				c0.17-0.08,0.34-0.16,0.49-0.27l17.17,30.77c-1.81,0.98-3.71,1.82-5.69,2.52L708.56,317.99z M711.45,319.9l22.38,23.23
				c-2.05,1.84-4.3,3.47-6.71,4.86L711.45,319.9z M710.47,318.15l-0.65-1.16c0.07-0.09,0.13-0.18,0.19-0.28l32.69,14.67
				c-2.09,4.3-4.98,8.17-8.48,11.41L710.47,318.15z M710.23,316.25c0.08-0.22,0.14-0.45,0.17-0.7l35.99,1.14
				c-0.2,5.06-1.42,9.86-3.47,14.23L710.23,316.25z M691.87,351.01l-6.14,14.55c-1.87-0.76-3.7-1.62-5.48-2.57l7.71-13.82
				C689.22,349.84,690.53,350.46,691.87,351.01z M692.35,351.2c4.16,1.63,8.66,2.61,13.37,2.78l-0.52,15.69
				c-6.6-0.23-13.01-1.57-18.99-3.93L692.35,351.2z M706.24,354c0.34,0.01,0.69,0.01,1.04,0.01c4.56,0,8.94-0.75,13.02-2.12
				l5.37,14.83c-5.84,1.97-12.04,2.99-18.4,2.99c-0.52,0-1.04-0.01-1.56-0.02L706.24,354z M720.79,351.73
				c2.01-0.71,3.95-1.57,5.8-2.57l7.71,13.82c-2.61,1.4-5.33,2.6-8.14,3.57L720.79,351.73z M759.82,296.12l-15.18,5.43
				c-1.84-4.74-4.6-9.04-8.08-12.69l11.79-10.75C753.42,283.41,757.29,289.52,759.82,296.12z M746.92,276.66
				c0.37,0.36,0.73,0.72,1.09,1.09l-11.79,10.74c-3.79-3.88-8.39-7-13.53-9.1l6.14-14.55C735.5,267.56,741.64,271.54,746.92,276.66z
				 M728.34,264.66l-6.14,14.55c-4.16-1.63-8.66-2.61-13.37-2.78l0.52-15.69C715.96,260.97,722.36,262.31,728.34,264.66z
				 M707.27,260.7c0.52,0,1.04,0.01,1.56,0.02l-0.52,15.69c-0.34-0.01-0.69-0.01-1.04-0.01c-4.56,0-8.94,0.75-13.02,2.12
				l-5.37-14.83C694.71,261.72,700.91,260.7,707.27,260.7z M688.38,263.85l5.38,14.83c-5.08,1.78-9.69,4.54-13.58,8.04l-11.05-11.47
				C674.77,270.16,681.31,266.31,688.38,263.85z M667.63,276.66c0.37-0.36,0.74-0.71,1.12-1.06l11.05,11.47
				c-3.58,3.31-6.53,7.25-8.66,11.64l-14.69-6.59C659.19,286.45,662.94,281.22,667.63,276.66z M656.24,292.58l14.68,6.59
				c-2.09,4.46-3.33,9.36-3.54,14.52l-16.14-0.51C651.52,305.96,653.23,298.99,656.24,292.58z M651.21,315.2
				c0-0.51,0.01-1.01,0.02-1.52l16.13,0.51c-0.01,0.34-0.01,0.67-0.01,1.01c0,4.62,0.84,9.06,2.37,13.17l-15.17,5.43
				C652.36,327.92,651.21,321.65,651.21,315.2z M654.73,334.28l15.18-5.43c1.84,4.74,4.6,9.04,8.08,12.69l-11.79,10.75
				C661.13,347,657.26,340.89,654.73,334.28z M667.63,353.75c-0.37-0.36-0.73-0.72-1.09-1.09l11.79-10.74
				c2.56,2.62,5.5,4.9,8.72,6.74l-7.72,13.83C675.11,360.12,671.18,357.19,667.63,353.75z M762.97,414.35H651.58l27.92-50.03
				c1.83,0.98,3.71,1.86,5.63,2.64l-1.97,4.66c-0.45-0.14-0.92-0.21-1.42-0.21c-2.58,0-4.68,2.04-4.68,4.55s2.09,4.55,4.68,4.55
				s4.68-2.04,4.68-4.55c0-1.85-1.14-3.44-2.77-4.15l1.96-4.65c6.15,2.42,12.73,3.8,19.53,4.04l-0.16,4.77
				c-2.53,0.06-4.57,2.07-4.57,4.54c0,2.51,2.09,4.55,4.68,4.55s4.68-2.04,4.68-4.55c0-2.38-1.88-4.33-4.26-4.53l0.16-4.77
				c0.54,0.01,1.07,0.02,1.61,0.02c6.54,0,12.91-1.05,18.92-3.08l1.68,4.64c-1.59,0.73-2.69,2.3-2.69,4.12
				c0,2.51,2.09,4.55,4.68,4.55c2.58,0,4.68-2.04,4.68-4.55s-2.09-4.55-4.68-4.55c-0.52,0-1.03,0.09-1.5,0.24l-1.67-4.61
				c2.88-1,5.68-2.23,8.37-3.67L762.97,414.35z M735.21,362.49l-7.72-13.83c2.47-1.42,4.78-3.09,6.87-4.97l11.05,11.47
				C742.27,357.99,738.85,360.45,735.21,362.49z M746.92,353.75c-0.37,0.36-0.74,0.71-1.12,1.06l-11.05-11.47
				c3.58-3.31,6.53-7.25,8.66-11.64l14.69,6.59C755.36,343.96,751.6,349.19,746.92,353.75z M758.31,337.83l-14.68-6.59
				c2.09-4.46,3.33-9.36,3.54-14.52l16.14,0.51C763.03,324.45,761.32,331.42,758.31,337.83z"/>
			<rect x="786.29" y="351.01" class="st5" width="60.09" height="85.6"/>
			<rect x="837.59" y="384.29" class="st5" width="60.09" height="51.84"/>
			<rect x="604.56" y="376.68" class="st5" width="33.71" height="43.5"/>
			<rect x="816.34" y="269.61" class="st5" width="42.5" height="167"/>
			<polygon class="st5" points="928.82,436.61 872.76,436.61 872.76,339.09 915.26,339.09 			"/>
			<rect x="904.27" y="414.35" class="st5" width="49.1" height="22.26"/>
			<rect x="847.85" y="234.72" class="st5" width="1.47" height="45.38"/>
			<rect x="852.79" y="244.45" class="st5" width="1.47" height="45.38"/>
			<rect x="843.36" y="250.72" class="st5" width="1.47" height="45.38"/>
			<rect x="874.96" y="331.21" class="st5" width="20.06" height="15.36"/>
			<rect x="877.16" y="325.73" class="st5" width="15.66" height="8.64"/>
			<rect x="902.99" y="335.71" class="st5" width="3.85" height="6.2"/>
			<rect x="908.2" y="330.05" class="st5" width="5.5" height="11.86"/>
		</g>
		<g>
			<g>
				<rect x="604.39" y="307.28" class="st6" width="50.95" height="159.68"/>
				<rect x="600.59" y="308.22" class="st6" width="58.57" height="1.62"/>
				<rect x="602.17" y="330.65" class="st6" width="55.4" height="1.61"/>
				<rect x="602.17" y="352.38" class="st6" width="55.4" height="1.61"/>
				<rect x="602.17" y="374.1" class="st6" width="55.4" height="1.61"/>
				<rect x="602.17" y="395.82" class="st6" width="55.4" height="1.61"/>
				<rect x="602.17" y="417.54" class="st6" width="55.4" height="1.61"/>
				<rect x="602.17" y="439.26" class="st6" width="55.4" height="1.61"/>
				<rect x="598.65" y="303.81" class="st6" width="62.44" height="4.41"/>
				<rect x="608.98" y="315.09" class="st7" width="5.29" height="12.76"/>
				<rect x="620.82" y="315.09" class="st6" width="5.29" height="12.76"/>
				<rect x="632.66" y="315.09" class="st6" width="5.29" height="12.76"/>
				<rect x="644.5" y="315.09" class="st6" width="5.29" height="12.76"/>
				<rect x="608.98" y="335.94" class="st6" width="5.29" height="12.76"/>
				<rect x="620.82" y="335.94" class="st7" width="5.29" height="12.76"/>
				<rect x="632.66" y="335.94" class="st6" width="5.29" height="12.76"/>
				<rect x="644.5" y="335.94" class="st6" width="5.29" height="12.76"/>
				<rect x="608.98" y="357.66" class="st6" width="5.29" height="12.76"/>
				<rect x="620.82" y="357.66" class="st6" width="5.29" height="12.76"/>
				<rect x="632.66" y="357.66" class="st6" width="5.29" height="12.76"/>
				<rect x="644.5" y="357.66" class="st7" width="5.29" height="12.76"/>
				<rect x="608.98" y="379.39" class="st6" width="5.29" height="12.76"/>
				<rect x="620.82" y="379.39" class="st7" width="5.29" height="12.76"/>
				<rect x="632.66" y="379.39" class="st7" width="5.29" height="12.76"/>
				<rect x="644.5" y="379.39" class="st6" width="5.29" height="12.76"/>
				<rect x="608.98" y="401.11" class="st7" width="5.29" height="12.76"/>
				<rect x="620.82" y="401.11" class="st6" width="5.29" height="12.76"/>
				<rect x="632.66" y="401.11" class="st6" width="5.29" height="12.76"/>
				<rect x="644.5" y="401.11" class="st6" width="5.29" height="12.76"/>
				<rect x="608.98" y="422.83" class="st6" width="5.29" height="12.76"/>
				<rect x="620.82" y="422.83" class="st6" width="5.29" height="12.76"/>
				<rect x="632.66" y="422.83" class="st7" width="5.29" height="12.76"/>
				<rect x="644.5" y="422.83" class="st6" width="5.29" height="12.76"/>
				<rect x="608.98" y="444.55" class="st6" width="5.29" height="12.76"/>
				<rect x="620.82" y="444.55" class="st7" width="5.29" height="12.76"/>
				<rect x="632.66" y="444.55" class="st6" width="5.29" height="12.76"/>
				<rect x="644.5" y="444.55" class="st7" width="5.29" height="12.76"/>
				<rect x="607.61" y="297.72" class="st6" width="17.33" height="8.29"/>
				<rect x="606.43" y="297.49" class="st6" width="19.68" height="1.42"/>
			</g>
			<g>
				<polygon class="st6" points="531.36,466.96 463.49,466.96 463.49,315.24 531.36,299.1 				"/>
				<rect x="460.51" y="312.57" class="st6" width="5.96" height="154.39"/>
				<rect x="477.48" y="308.22" class="st6" width="5.96" height="158.74"/>
				<rect x="494.45" y="303.7" class="st6" width="5.96" height="163.26"/>
				<rect x="511.41" y="300.02" class="st6" width="5.96" height="166.94"/>
				<rect x="528.38" y="296.1" class="st6" width="5.96" height="170.85"/>
				<rect x="468.02" y="325.53" class="st7" width="7.92" height="11.72"/>
				<rect x="484.99" y="325.53" class="st7" width="7.92" height="11.72"/>
				<rect x="501.95" y="325.53" class="st6" width="7.92" height="11.72"/>
				<rect x="518.92" y="325.53" class="st7" width="7.92" height="11.72"/>
				<rect x="468.02" y="345.94" class="st6" width="7.92" height="11.72"/>
				<rect x="484.99" y="345.94" class="st6" width="7.92" height="11.72"/>
				<rect x="501.95" y="345.94" class="st7" width="7.92" height="11.72"/>
				<rect x="518.92" y="345.94" class="st7" width="7.92" height="11.72"/>
				<rect x="468.02" y="366.36" class="st7" width="7.92" height="11.72"/>
				<rect x="484.99" y="366.36" class="st7" width="7.92" height="11.72"/>
				<rect x="501.95" y="366.36" class="st7" width="7.92" height="11.72"/>
				<rect x="518.92" y="366.36" class="st6" width="7.92" height="11.72"/>
				<rect x="468.02" y="386.77" class="st7" width="7.92" height="11.72"/>
				<rect x="484.99" y="386.77" class="st6" width="7.92" height="11.72"/>
				<rect x="501.95" y="386.77" class="st7" width="7.92" height="11.72"/>
				<rect x="518.92" y="386.77" class="st7" width="7.92" height="11.72"/>
				<rect x="468.02" y="407.19" class="st7" width="7.92" height="11.72"/>
				<rect x="484.99" y="407.19" class="st7" width="7.92" height="11.72"/>
				<rect x="501.95" y="407.19" class="st6" width="7.92" height="11.72"/>
				<rect x="518.92" y="407.19" class="st7" width="7.92" height="11.72"/>
				<rect x="468.02" y="427.61" class="st6" width="7.92" height="11.72"/>
				<rect x="484.99" y="427.61" class="st6" width="7.92" height="11.72"/>
				<rect x="501.95" y="427.61" class="st7" width="7.92" height="11.72"/>
				<rect x="518.92" y="427.61" class="st7" width="7.92" height="11.72"/>
				<rect x="468.02" y="448.02" class="st7" width="7.92" height="11.72"/>
				<rect x="484.99" y="448.02" class="st6" width="7.92" height="11.72"/>
				<rect x="501.95" y="448.02" class="st7" width="7.92" height="11.72"/>
				<rect x="518.92" y="448.02" class="st6" width="7.92" height="11.72"/>
			</g>
			<polygon class="st6" points="269.87,322.51 269.87,324.08 268.26,324.08 268.26,328.57 296.66,328.57 296.66,466.96 
				250.06,466.96 250.06,335.79 250.06,328.57 250.06,324.08 248.36,324.08 248.36,322.51 			"/>
			<rect x="349.27" y="385.37" class="st6" width="39.92" height="81.59"/>
			<g>
				<rect x="175.28" y="366.66" class="st6" width="32.45" height="100.29"/>
				<rect x="201.3" y="387.56" class="st6" width="35.36" height="79.4"/>
				<rect x="186.96" y="362.64" class="st6" width="14.35" height="12"/>
				<rect x="203.73" y="386.25" class="st6" width="37.69" height="2.94"/>
			</g>
			<rect x="232.87" y="421.61" class="st6" width="39.65" height="45.34"/>
			<rect x="104.73" y="384.73" class="st6" width="32.25" height="82.22"/>
			<rect x="76.75" y="425.71" class="st6" width="42.43" height="41.25"/>
			<rect x="30.03" y="418.97" class="st6" width="26.54" height="47.99"/>
			<rect x="51.42" y="451.92" class="st6" width="62.72" height="15.03"/>
			<rect x="6.01" y="447.07" class="st6" width="32.15" height="19.89"/>
			<rect x="136.98" y="436.61" class="st6" width="49.97" height="30.35"/>
			<rect x="283.57" y="453.88" class="st6" width="77.84" height="13.07"/>
			<rect x="421.59" y="453.88" class="st6" width="77.84" height="13.07"/>
			<polygon class="st6" points="358.39,415.5 328.8,415.5 316.29,460.42 358.39,460.42 			"/>
			<rect x="372.06" y="350.15" class="st6" width="0.82" height="49.83"/>
			<rect x="376.18" y="367.01" class="st6" width="1.1" height="29.4"/>
			<rect x="370.29" y="372.22" class="st6" width="14.97" height="14.55"/>
			<rect x="367.77" y="371.09" class="st6" width="19.83" height="1.3"/>
			<rect x="381.93" y="424.87" class="st6" width="48.37" height="42.08"/>
			<rect x="421.04" y="378.54" class="st6" width="31.07" height="81.2"/>
			<rect x="542.41" y="393.81" class="st6" width="49.65" height="73.15"/>
			<rect x="526.84" y="440" class="st6" width="56.6" height="26.95"/>
			<rect x="589.3" y="457.31" class="st6" width="36.81" height="9.65"/>
			<rect x="646" y="440" class="st6" width="59.85" height="26.95"/>
			<g>
				
					<rect x="669.84" y="369.44" transform="matrix(-1 -1.224647e-16 1.224647e-16 -1 1414.151 836.3948)" class="st6" width="74.47" height="97.52"/>
				
					<rect x="667.92" y="365.7" transform="matrix(-1 -1.224647e-16 1.224647e-16 -1 1416.572 735.136)" class="st6" width="80.74" height="3.74"/>
				
					<rect x="708.29" y="355.55" transform="matrix(-1 -1.224647e-16 1.224647e-16 -1 1449.2986 730.8612)" class="st6" width="32.73" height="19.77"/>
				
					<rect x="692.1" y="355.55" transform="matrix(-1 -1.224647e-16 1.224647e-16 -1 1389.6943 723.1132)" class="st6" width="5.5" height="12.02"/>
				
					<rect x="680.56" y="355.55" transform="matrix(-1 -1.224647e-16 1.224647e-16 -1 1367.1613 723.1132)" class="st6" width="6.05" height="12.02"/>
			</g>
			<g>
				
					<rect x="795.5" y="324.54" transform="matrix(-1 -1.224647e-16 1.224647e-16 -1 1649.9534 791.4922)" class="st6" width="58.95" height="142.42"/>
				
					<rect x="793.83" y="322.09" transform="matrix(-1 -1.224647e-16 1.224647e-16 -1 1649.9534 648.1989)" class="st6" width="62.3" height="4.03"/>
				
					<rect x="797.48" y="316.93" transform="matrix(-1 -1.224647e-16 1.224647e-16 -1 1649.9534 653.0014)" class="st6" width="54.98" height="19.13"/>
				
					<rect x="826.49" y="309.11" transform="matrix(-1 -1.224647e-16 1.224647e-16 -1 1674.7469 639.1156)" class="st6" width="21.77" height="20.91"/>
				<polygon class="st6" points="835.66,315 848.26,315 848.26,303.99 839.22,303.99 				"/>
				
					<rect x="841.96" y="294.86" transform="matrix(-1 -1.224647e-16 1.224647e-16 -1 1685.1412 614.2283)" class="st6" width="1.22" height="24.51"/>
				<path class="st6" d="M841.47,293.59c0,0.7,0.49,1.27,1.1,1.27c0.61,0,1.1-0.57,1.1-1.27c0-0.7-0.49-1.27-1.1-1.27
					C841.96,292.32,841.47,292.89,841.47,293.59z"/>
			</g>
			<rect x="846.38" y="408.16" class="st6" width="26.38" height="58.8"/>
			<rect x="771.24" y="379.5" class="st6" width="30.08" height="87.46"/>
			<polygon class="st6" points="786.29,466.96 743.91,466.96 743.91,420.18 779.68,435.59 			"/>
			<rect x="864.1" y="441.55" class="st6" width="64.72" height="25.41"/>
			<rect x="904.91" y="365.54" class="st6" width="37.59" height="101.41"/>
			<rect x="933.71" y="448.02" class="st6" width="62.29" height="18.94"/>
			<rect x="902.99" y="363.69" class="st6" width="41.24" height="3.32"/>
			<rect x="936.64" y="349.38" class="st6" width="0.82" height="20.44"/>
			<rect x="931.15" y="351.96" class="st6" width="0.82" height="16.39"/>
			<polygon class="st6" points="956.43,403.75 939.67,403.75 939.67,450.21 963.57,450.21 			"/>
		</g>
	</g>
	<g>
		<g class="st8">
			<rect x="201.82" y="361.19" class="st9" width="2.27" height="2.27"/>
			<rect x="206.38" y="361.19" class="st9" width="2.27" height="2.27"/>
			<rect x="201.82" y="366.53" class="st9" width="2.27" height="2.27"/>
			<rect x="206.38" y="366.53" class="st9" width="2.27" height="2.27"/>
			<rect x="201.82" y="371.69" class="st9" width="2.27" height="2.27"/>
			<rect x="211.45" y="361.19" class="st9" width="2.27" height="2.27"/>
		</g>
		<rect x="368.05" y="292.97" class="st10" width="1.55" height="8.57"/>
		<rect x="373.39" y="292.97" class="st10" width="1.55" height="8.57"/>
		<rect x="378.73" y="292.97" class="st10" width="1.55" height="8.57"/>
		<rect x="384.07" y="292.97" class="st10" width="1.55" height="8.57"/>
		<rect x="389.41" y="292.97" class="st10" width="1.55" height="8.57"/>
		<rect x="394.75" y="292.97" class="st10" width="1.55" height="8.57"/>
		<rect x="400.08" y="292.97" class="st10" width="1.55" height="8.57"/>
		<rect x="405.42" y="292.97" class="st10" width="1.55" height="8.57"/>
		<rect x="410.76" y="292.97" class="st10" width="1.55" height="8.57"/>
		<rect x="416.1" y="292.97" class="st10" width="1.55" height="8.57"/>
		<rect x="421.44" y="292.97" class="st10" width="1.55" height="8.57"/>
		<rect x="368.05" y="304.91" class="st10" width="1.55" height="8.57"/>
		<rect x="373.39" y="304.91" class="st10" width="1.55" height="8.57"/>
		<rect x="378.73" y="304.91" class="st10" width="1.55" height="8.57"/>
		<rect x="384.07" y="304.91" class="st10" width="1.55" height="8.57"/>
		<rect x="389.41" y="304.91" class="st10" width="1.55" height="8.57"/>
		<rect x="394.75" y="304.91" class="st10" width="1.55" height="8.57"/>
		<rect x="400.08" y="304.91" class="st10" width="1.55" height="8.57"/>
		<rect x="405.42" y="304.91" class="st10" width="1.55" height="8.57"/>
		<rect x="410.76" y="304.91" class="st10" width="1.55" height="8.57"/>
		<rect x="416.1" y="304.91" class="st10" width="1.55" height="8.57"/>
		<rect x="421.44" y="304.91" class="st10" width="1.55" height="8.57"/>
		<rect x="368.05" y="316.85" class="st10" width="1.55" height="8.57"/>
		<rect x="373.39" y="316.85" class="st10" width="1.55" height="8.57"/>
		<rect x="378.73" y="316.85" class="st10" width="1.55" height="8.57"/>
		<rect x="384.07" y="316.85" class="st10" width="1.55" height="8.57"/>
		<rect x="389.41" y="316.85" class="st10" width="1.55" height="8.57"/>
		<rect x="394.75" y="316.85" class="st10" width="1.55" height="8.57"/>
		<rect x="400.08" y="316.85" class="st10" width="1.55" height="8.57"/>
		<rect x="405.42" y="316.85" class="st10" width="1.55" height="8.57"/>
		<rect x="410.76" y="316.85" class="st10" width="1.55" height="8.57"/>
		<rect x="416.1" y="316.85" class="st10" width="1.55" height="8.57"/>
		<rect x="421.44" y="316.85" class="st10" width="1.55" height="8.57"/>
		<rect x="384.07" y="328.79" class="st10" width="1.55" height="8.57"/>
		<rect x="389.41" y="328.79" class="st10" width="1.55" height="8.57"/>
		<rect x="394.75" y="328.79" class="st10" width="1.55" height="8.57"/>
		<rect x="400.08" y="328.79" class="st10" width="1.55" height="8.57"/>
		<rect x="405.42" y="328.79" class="st10" width="1.55" height="8.57"/>
		<rect x="410.76" y="328.79" class="st10" width="1.55" height="8.57"/>
		<rect x="416.1" y="328.79" class="st10" width="1.55" height="8.57"/>
		<rect x="421.44" y="328.79" class="st10" width="1.55" height="8.57"/>
		<rect x="389.41" y="341.39" class="st10" width="1.55" height="8.57"/>
		<rect x="394.75" y="341.39" class="st10" width="1.55" height="8.57"/>
		<rect x="400.08" y="341.39" class="st10" width="1.55" height="8.57"/>
		<rect x="405.42" y="341.39" class="st10" width="1.55" height="8.57"/>
		<rect x="410.76" y="341.39" class="st10" width="1.55" height="8.57"/>
		<rect x="416.1" y="341.39" class="st10" width="1.55" height="8.57"/>
		<rect x="421.44" y="341.39" class="st10" width="1.55" height="8.57"/>
		<rect x="471.26" y="314.26" class="st11" width="3.66" height="9.28"/>
		<rect x="471.26" y="332.01" class="st11" width="3.66" height="9.28"/>
		<rect x="471.26" y="349.77" class="st11" width="3.66" height="9.28"/>
		<rect x="471.26" y="367.52" class="st11" width="3.66" height="9.28"/>
		<rect x="471.26" y="384.26" class="st11" width="3.66" height="9.28"/>
		<rect x="471.26" y="402.02" class="st11" width="3.66" height="9.28"/>
		<rect x="486.96" y="314.26" class="st11" width="3.66" height="9.28"/>
		<rect x="486.96" y="332.01" class="st11" width="3.66" height="9.28"/>
		<rect x="486.96" y="349.77" class="st11" width="3.66" height="9.28"/>
		<rect x="486.96" y="367.52" class="st11" width="3.66" height="9.28"/>
		<rect x="486.96" y="384.26" class="st11" width="3.66" height="9.28"/>
		<rect x="486.96" y="402.02" class="st11" width="3.66" height="9.28"/>
		<rect x="502.65" y="314.26" class="st11" width="3.66" height="9.28"/>
		<rect x="502.65" y="332.01" class="st11" width="3.66" height="9.28"/>
		<rect x="502.65" y="349.77" class="st11" width="3.66" height="9.28"/>
		<rect x="502.65" y="367.52" class="st11" width="3.66" height="9.28"/>
		<rect x="502.65" y="384.26" class="st11" width="3.66" height="9.28"/>
		<rect x="502.65" y="402.02" class="st11" width="3.66" height="9.28"/>
		<rect x="518.34" y="314.26" class="st11" width="3.66" height="9.28"/>
		<rect x="518.34" y="332.01" class="st11" width="3.66" height="9.28"/>
		<rect x="518.34" y="349.77" class="st11" width="3.66" height="9.28"/>
		<rect x="518.34" y="367.52" class="st11" width="3.66" height="9.28"/>
		<rect x="518.34" y="384.26" class="st11" width="3.66" height="9.28"/>
		<rect x="518.34" y="402.02" class="st11" width="3.66" height="9.28"/>
		<rect x="412.31" y="184.81" class="st10" width="3.05" height="8.12"/>
		<rect x="419.83" y="184.81" class="st10" width="3.05" height="8.12"/>
		<rect x="427.34" y="184.81" class="st10" width="3.05" height="8.12"/>
		<rect x="434.85" y="184.81" class="st10" width="3.05" height="8.12"/>
		<rect x="412.31" y="198.34" class="st10" width="3.05" height="8.12"/>
		<rect x="419.83" y="198.34" class="st10" width="3.05" height="8.12"/>
		<rect x="427.34" y="198.34" class="st10" width="3.05" height="8.12"/>
		<rect x="434.85" y="198.34" class="st10" width="3.05" height="8.12"/>
		<rect x="412.31" y="211.87" class="st10" width="3.05" height="8.12"/>
		<rect x="419.83" y="211.87" class="st10" width="3.05" height="8.12"/>
		<rect x="443.38" y="184.81" class="st10" width="3.05" height="8.12"/>
		<rect x="209.52" y="267.11" class="st12" width="1.94" height="7.45"/>
		<rect x="216.35" y="267.11" class="st12" width="1.94" height="7.45"/>
		<rect x="224.34" y="267.11" class="st12" width="1.94" height="7.45"/>
		<rect x="231.18" y="267.11" class="st12" width="1.94" height="7.45"/>
		<rect x="194.34" y="267.11" class="st12" width="1.94" height="7.45"/>
		<rect x="201.17" y="267.11" class="st12" width="1.94" height="7.45"/>
		<rect x="209.52" y="280.04" class="st12" width="1.94" height="7.45"/>
		<rect x="216.35" y="280.04" class="st12" width="1.94" height="7.45"/>
		<rect x="224.34" y="280.04" class="st12" width="1.94" height="7.45"/>
		<rect x="231.18" y="280.04" class="st12" width="1.94" height="7.45"/>
		<rect x="194.34" y="280.04" class="st12" width="1.94" height="7.45"/>
		<rect x="201.17" y="280.04" class="st12" width="1.94" height="7.45"/>
		<rect x="209.52" y="292.97" class="st12" width="1.94" height="7.45"/>
		<rect x="216.35" y="292.97" class="st12" width="1.94" height="7.45"/>
		<rect x="224.34" y="292.97" class="st12" width="1.94" height="7.45"/>
		<rect x="231.18" y="292.97" class="st12" width="1.94" height="7.45"/>
		<rect x="194.34" y="292.97" class="st12" width="1.94" height="7.45"/>
		<rect x="201.17" y="292.97" class="st12" width="1.94" height="7.45"/>
		<rect x="570.92" y="324.18" class="st10" width="3" height="11.55"/>
		<rect x="580.1" y="324.18" class="st10" width="3" height="11.55"/>
		<rect x="588.74" y="324.18" class="st10" width="3" height="11.55"/>
		<rect x="777.67" y="326.58" class="st11" width="2.28" height="6.49"/>
		<rect x="784.81" y="326.58" class="st11" width="2.28" height="6.49"/>
		<rect x="777.67" y="326.58" class="st11" width="2.28" height="6.49"/>
		<rect x="784.81" y="326.58" class="st11" width="2.28" height="6.49"/>
		<rect x="791.55" y="326.58" class="st11" width="2.28" height="6.49"/>
		<rect x="798.69" y="326.58" class="st11" width="2.28" height="6.49"/>
		<rect x="777.67" y="338.23" class="st11" width="2.28" height="6.49"/>
		<rect x="784.81" y="338.23" class="st11" width="2.28" height="6.49"/>
		<rect x="777.67" y="338.23" class="st11" width="2.28" height="6.49"/>
		<rect x="784.81" y="338.23" class="st11" width="2.28" height="6.49"/>
		<rect x="791.55" y="338.23" class="st11" width="2.28" height="6.49"/>
		<rect x="798.69" y="338.23" class="st11" width="2.28" height="6.49"/>
		<rect x="777.67" y="350.62" class="st11" width="2.28" height="6.49"/>
		<rect x="784.81" y="350.62" class="st11" width="2.28" height="6.49"/>
		<rect x="777.67" y="350.62" class="st11" width="2.28" height="6.49"/>
		<rect x="784.81" y="350.62" class="st11" width="2.28" height="6.49"/>
		<rect x="791.55" y="350.62" class="st11" width="2.28" height="6.49"/>
		<rect x="798.69" y="350.62" class="st11" width="2.28" height="6.49"/>
		<rect x="806.49" y="326.58" class="st11" width="2.28" height="6.49"/>
		<rect x="806.49" y="338.23" class="st11" width="2.28" height="6.49"/>
		<rect x="813.63" y="326.58" class="st11" width="2.28" height="6.49"/>
		<rect x="599.79" y="307.31" class="st11" width="2.45" height="10.13"/>
		<rect x="611.97" y="307.31" class="st11" width="2.45" height="10.13"/>
		<rect x="624.14" y="307.31" class="st11" width="2.45" height="10.13"/>
		<rect x="636.31" y="307.31" class="st11" width="2.45" height="10.13"/>
		<rect x="599.79" y="328.15" class="st11" width="2.45" height="10.13"/>
		<rect x="611.97" y="328.15" class="st11" width="2.45" height="10.13"/>
		<rect x="624.14" y="328.15" class="st11" width="2.45" height="10.13"/>
		<rect x="636.31" y="328.15" class="st11" width="2.45" height="10.13"/>
		<rect x="599.79" y="349.51" class="st11" width="2.45" height="10.13"/>
		<rect x="611.97" y="349.51" class="st11" width="2.45" height="10.13"/>
		<rect x="624.14" y="349.51" class="st11" width="2.45" height="10.13"/>
		<rect x="636.31" y="349.51" class="st11" width="2.45" height="10.13"/>
		<rect x="599.79" y="370.87" class="st11" width="2.45" height="10.13"/>
		<rect x="611.97" y="370.87" class="st11" width="2.45" height="10.13"/>
		<rect x="624.14" y="370.87" class="st11" width="2.45" height="10.13"/>
		<rect x="636.31" y="370.87" class="st11" width="2.45" height="10.13"/>
		<rect x="599.79" y="390.27" class="st11" width="2.45" height="10.13"/>
		<rect x="611.97" y="390.27" class="st11" width="2.45" height="10.13"/>
		<rect x="624.14" y="390.27" class="st11" width="2.45" height="10.13"/>
		<rect x="599.79" y="411.91" class="st11" width="2.45" height="10.13"/>
		<rect x="611.97" y="411.91" class="st11" width="2.45" height="10.13"/>
		<rect x="624.14" y="411.91" class="st11" width="2.45" height="10.13"/>
		<rect x="636.31" y="390.27" class="st11" width="2.45" height="10.13"/>
		<rect x="876.54" y="360.84" class="st11" width="2.5" height="5.81"/>
		<rect x="876.54" y="370.22" class="st11" width="2.5" height="5.81"/>
		<rect x="882.96" y="360.84" class="st11" width="2.5" height="5.81"/>
	</g>
</g>
</svg>
